<svg width="1320" height="20" viewBox="0 0 1320 20" fill="none" xmlns="http://www.w3.org/2000/svg">
<path d="M-15 10C-1.67358 21.3215 6.27794 20.8091 21.0818 10" stroke="#fff" stroke-width="3"/>
<path d="M129.055 10C142.381 21.3215 150.333 20.8091 165.137 10" stroke="#fff" stroke-width="3"/>
<path d="M273.055 10C286.381 21.3215 294.333 20.8091 309.137 10" stroke="#fff" stroke-width="3"/>
<path d="M561.055 10C574.381 21.3215 582.333 20.8091 597.137 10" stroke="#fff" stroke-width="3"/>
<path d="M849.055 10C862.381 21.3215 870.333 20.8091 885.137 10" stroke="#fff" stroke-width="3"/>
<path d="M417.055 10C430.381 21.3215 438.333 20.8091 453.137 10" stroke="#fff" stroke-width="3"/>
<path d="M705.055 10C718.381 21.3215 726.333 20.8091 741.137 10" stroke="#fff" stroke-width="3"/>
<path d="M993.055 10C1006.38 21.3215 1014.33 20.8091 1029.14 10" stroke="#fff" stroke-width="3"/>
<path d="M1209 10C1222.33 21.3215 1230.28 20.8091 1245.08 10" stroke="#fff" stroke-width="3"/>
<path d="M57.0547 10C70.3811 21.3215 78.3326 20.8091 93.1365 10" stroke="#fff" stroke-width="3"/>
<path d="M201.109 10C214.436 21.3215 222.387 20.8091 237.191 10" stroke="#fff" stroke-width="3"/>
<path d="M345.109 10C358.436 21.3215 366.387 20.8091 381.191 10" stroke="#fff" stroke-width="3"/>
<path d="M633.109 10C646.436 21.3215 654.387 20.8091 669.191 10" stroke="#fff" stroke-width="3"/>
<path d="M921.109 10C934.436 21.3215 942.387 20.8091 957.191 10" stroke="#fff" stroke-width="3"/>
<path d="M1137.05 10C1150.38 21.3215 1158.33 20.8091 1173.14 10" stroke="#fff" stroke-width="3"/>
<path d="M489.109 10C502.436 21.3215 510.387 20.8091 525.191 10" stroke="#fff" stroke-width="3"/>
<path d="M777.109 10C790.436 21.3215 798.387 20.8091 813.191 10" stroke="#fff" stroke-width="3"/>
<path d="M1065.11 10C1078.44 21.3215 1086.39 20.8091 1101.19 10" stroke="#fff" stroke-width="3"/>
<path d="M1281.05 10C1294.38 21.3215 1302.33 20.8091 1317.14 10" stroke="#fff" stroke-width="3"/>
<path d="M57.1367 10.2998C43.8103 -1.02172 35.8588 -0.509333 21.0549 10.2998" stroke="#fff" stroke-width="3"/>
<path d="M201.191 10.2998C187.865 -1.02172 179.913 -0.509333 165.11 10.2998" stroke="#fff" stroke-width="3"/>
<path d="M345.191 10.2998C331.865 -1.02172 323.913 -0.509333 309.11 10.2998" stroke="#fff" stroke-width="3"/>
<path d="M633.191 10.2998C619.865 -1.02172 611.913 -0.509333 597.11 10.2998" stroke="#fff" stroke-width="3"/>
<path d="M921.191 10.2998C907.865 -1.02172 899.913 -0.509333 885.11 10.2998" stroke="#fff" stroke-width="3"/>
<path d="M489.191 10.2998C475.865 -1.02172 467.913 -0.509333 453.11 10.2998" stroke="#fff" stroke-width="3"/>
<path d="M777.191 10.2998C763.865 -1.02172 755.913 -0.509333 741.11 10.2998" stroke="#fff" stroke-width="3"/>
<path d="M1065.19 10.2998C1051.86 -1.02172 1043.91 -0.509333 1029.11 10.2998" stroke="#fff" stroke-width="3"/>
<path d="M1281.14 10.2998C1267.81 -1.02172 1259.86 -0.509333 1245.05 10.2998" stroke="#fff" stroke-width="3"/>
<path d="M129.191 10.2998C115.865 -1.02172 107.913 -0.509333 93.1096 10.2998" stroke="#fff" stroke-width="3"/>
<path d="M273.244 10.2998C259.918 -1.02172 251.966 -0.509333 237.162 10.2998" stroke="#fff" stroke-width="3"/>
<path d="M417.244 10.2998C403.918 -1.02172 395.966 -0.509333 381.162 10.2998" stroke="#fff" stroke-width="3"/>
<path d="M705.244 10.2998C691.918 -1.02172 683.966 -0.509333 669.162 10.2998" stroke="#fff" stroke-width="3"/>
<path d="M993.244 10.2998C979.918 -1.02172 971.966 -0.509333 957.162 10.2998" stroke="#fff" stroke-width="3"/>
<path d="M1209.19 10.2998C1195.86 -1.02172 1187.91 -0.509333 1173.11 10.2998" stroke="#fff" stroke-width="3"/>
<path d="M561.244 10.2998C547.918 -1.02172 539.966 -0.509333 525.162 10.2998" stroke="#fff" stroke-width="3"/>
<path d="M849.244 10.2998C835.918 -1.02172 827.966 -0.509333 813.162 10.2998" stroke="#fff" stroke-width="3"/>
<path d="M1137.24 10.2998C1123.92 -1.02172 1115.97 -0.509333 1101.16 10.2998" stroke="#fff" stroke-width="3"/>
<path d="M1353.19 10.2998C1339.86 -1.02172 1331.91 -0.509333 1317.11 10.2998" stroke="#fff" stroke-width="3"/>
</svg>
