<?xml version="1.0" encoding="UTF-8"?>
<svg xmlns="http://www.w3.org/2000/svg" xmlns:xlink="http://www.w3.org/1999/xlink" viewBox="0 0 350 190">
  <defs>
    <style>
      .cls-1 {
        fill: #e7ebe4;
      }

      .cls-2 {
        fill: #fff;
      }

      .cls-3 {
        fill: #f5bf56;
      }

      .cls-4 {
        fill: #fb0;
      }

      .cls-5 {
        fill: #ff8000;
      }

      .cls-6 {
        fill: #9be65a;
      }

      .cls-7 {
        fill: #8fd1ff;
      }

      .cls-8 {
        fill: #b2b5b0;
      }

      .cls-9 {
        fill: #c96965;
      }

      .cls-10 {
        fill: #202126;
      }

      .cls-11 {
        fill: #873835;
      }

      .cls-12 {
        fill: #4c702c;
      }

      .cls-13 {
        fill: #5ebdff;
      }

      .cls-14 {
        fill: #5e2725;
      }

      .cls-15 {
        fill: #79b346;
      }

      .cls-16 {
        fill: #787a77;
      }
    </style>
  </defs>
  <g id="OBJECTS">
    <g>
      <rect class="cls-7" y="-6.78" width="350" height="196.87"/>
      <g>
        <rect class="cls-13" y="135.27" width="350" height="54.82"/>
        <rect class="cls-13" y="128.49" width="350" height="5.51"/>
        <rect class="cls-13" y="122.74" width="350" height="4.24"/>
        <rect class="cls-13" y="117.91" width="350" height="2.96"/>
        <rect class="cls-13" y="114.31" width="350" height="1.68"/>
      </g>
      <g>
        <rect class="cls-13" y="-6.78" width="350" height="10.66"/>
        <rect class="cls-13" y="5.15" width="350" height="5.51"/>
        <rect class="cls-13" y="12.18" width="350" height="4.24"/>
        <rect class="cls-13" y="18.28" width="350" height="2.96"/>
        <rect class="cls-13" y="23.16" width="350" height="1.68"/>
      </g>
      <g>
        <g>
          <polygon class="cls-9" points="206.63 157.61 204.59 157.61 204.59 159.64 204.59 161.67 204.59 163.7 206.63 163.7 208.67 163.7 208.67 161.67 208.67 159.64 208.67 157.61 206.63 157.61"/>
          <polygon class="cls-11" points="206.63 155.58 204.59 155.58 204.59 157.61 206.63 157.61 208.67 157.61 208.67 155.58 206.63 155.58"/>
          <g>
            <polygon class="cls-12" points="214.8 153.55 214.8 155.58 214.8 157.61 216.84 157.61 216.84 155.58 216.84 153.55 214.8 153.55"/>
            <polygon class="cls-12" points="210.71 155.58 210.71 157.61 212.75 157.61 212.75 155.58 212.75 153.55 210.71 153.55 210.71 155.58"/>
            <rect class="cls-12" x="210.71" y="149.49" width="2.04" height="2.03"/>
            <rect class="cls-12" x="208.67" y="147.46" width="2.04" height="2.03"/>
            <polygon class="cls-12" points="204.59 151.52 204.59 153.55 204.59 155.58 206.63 155.58 208.67 155.58 208.67 153.55 208.67 151.52 206.63 151.52 204.59 151.52"/>
            <rect class="cls-12" x="204.59" y="145.43" width="2.04" height="2.03"/>
            <rect class="cls-12" x="202.55" y="147.46" width="2.04" height="2.03"/>
            <polygon class="cls-12" points="200.51 155.58 200.51 157.61 202.55 157.61 202.55 155.58 202.55 153.55 200.51 153.55 200.51 155.58"/>
          </g>
          <g>
            <path class="cls-15" d="M214.8,149.49v-2.03h-2.04v-2.03h-2.04v-2.03h-2.04v-2.03h-2.04v2.03h-2.04v2.03h2.04v2.03h-2.04v2.03h-2.04v-2.03h-2.04v2.03h-2.04v4.06h6.12v-2.03h4.08v2.03h8.16v-4.06h-2.04Zm-4.08,2.03v-2.03h-2.04v-2.03h2.04v2.03h2.04v2.03h-2.04Z"/>
            <rect class="cls-15" x="202.55" y="145.43" width="2.04" height="2.03"/>
          </g>
          <g>
            <rect class="cls-6" x="204.59" y="141.36" width="2.04" height="2.03"/>
            <rect class="cls-6" x="202.55" y="143.4" width="2.04" height="2.03"/>
            <rect class="cls-6" x="200.51" y="145.43" width="2.04" height="2.03"/>
            <rect class="cls-6" x="198.47" y="147.46" width="2.04" height="2.03"/>
            <polygon class="cls-6" points="196.43 151.52 196.43 153.55 196.43 155.58 196.43 157.61 198.47 157.61 198.47 155.58 198.47 153.55 198.47 151.52 198.47 149.49 196.43 149.49 196.43 151.52"/>
          </g>
        </g>
        <g>
          <rect class="cls-16" x="89.33" y="161.67" width="2.04" height="2.03"/>
          <rect class="cls-1" x="89.33" y="159.64" width="2.04" height="2.03"/>
          <rect class="cls-8" x="87.29" y="161.67" width="2.04" height="2.03"/>
          <rect class="cls-8" x="87.29" y="159.64" width="2.04" height="2.03"/>
          <rect class="cls-8" x="87.29" y="157.61" width="2.04" height="2.03"/>
          <rect class="cls-1" x="87.29" y="155.58" width="2.04" height="2.03"/>
          <rect class="cls-16" x="85.25" y="161.67" width="2.04" height="2.03"/>
          <rect class="cls-8" x="85.25" y="159.64" width="2.04" height="2.03"/>
          <rect class="cls-8" x="85.25" y="157.61" width="2.04" height="2.03"/>
          <rect class="cls-16" x="85.25" y="155.58" width="2.04" height="2.03"/>
          <rect class="cls-16" x="83.21" y="161.67" width="2.04" height="2.03"/>
          <rect class="cls-16" x="83.21" y="159.64" width="2.04" height="2.03"/>
          <rect class="cls-16" x="83.21" y="157.61" width="2.04" height="2.03"/>
          <rect class="cls-8" x="83.21" y="155.58" width="2.04" height="2.03"/>
          <rect class="cls-1" x="83.21" y="153.55" width="2.04" height="2.03"/>
          <rect class="cls-16" x="81.16" y="161.67" width="2.04" height="2.03"/>
          <rect class="cls-16" x="81.16" y="159.64" width="2.04" height="2.03"/>
          <rect class="cls-8" x="81.16" y="157.61" width="2.04" height="2.03"/>
          <rect class="cls-8" x="81.16" y="155.58" width="2.04" height="2.03"/>
          <rect class="cls-1" x="81.16" y="153.55" width="2.04" height="2.03"/>
          <rect class="cls-16" x="79.12" y="161.67" width="2.04" height="2.03"/>
          <rect class="cls-8" x="79.12" y="159.64" width="2.04" height="2.03"/>
          <rect class="cls-16" x="79.12" y="157.61" width="2.04" height="2.03"/>
          <rect class="cls-8" x="79.12" y="155.58" width="2.04" height="2.03"/>
          <rect class="cls-8" x="77.08" y="161.67" width="2.04" height="2.03"/>
          <rect class="cls-8" x="77.08" y="159.64" width="2.04" height="2.03"/>
          <rect class="cls-8" x="77.08" y="157.61" width="2.04" height="2.03"/>
          <rect class="cls-1" x="77.08" y="155.58" width="2.04" height="2.03"/>
          <rect class="cls-8" x="75.04" y="161.67" width="2.04" height="2.03"/>
          <rect class="cls-1" x="75.04" y="159.64" width="2.04" height="2.03"/>
          <rect class="cls-1" x="75.04" y="157.61" width="2.04" height="2.03"/>
          <rect class="cls-1" x="73" y="161.67" width="2.04" height="2.03"/>
        </g>
        <g>
          <rect class="cls-16" x="241.82" y="161.67" width="2.04" height="2.03"/>
          <rect class="cls-1" x="241.82" y="159.64" width="2.04" height="2.03"/>
          <rect class="cls-8" x="239.78" y="161.67" width="2.04" height="2.03"/>
          <rect class="cls-8" x="239.78" y="159.64" width="2.04" height="2.03"/>
          <rect class="cls-8" x="239.78" y="157.61" width="2.04" height="2.03"/>
          <rect class="cls-1" x="239.78" y="155.58" width="2.04" height="2.03"/>
          <rect class="cls-16" x="237.74" y="161.67" width="2.04" height="2.03"/>
          <rect class="cls-8" x="237.74" y="159.64" width="2.04" height="2.03"/>
          <rect class="cls-8" x="237.74" y="157.61" width="2.04" height="2.03"/>
          <rect class="cls-16" x="237.74" y="155.58" width="2.04" height="2.03"/>
          <rect class="cls-16" x="235.7" y="161.67" width="2.04" height="2.03"/>
          <rect class="cls-16" x="235.7" y="159.64" width="2.04" height="2.03"/>
          <rect class="cls-16" x="235.7" y="157.61" width="2.04" height="2.03"/>
          <rect class="cls-8" x="235.7" y="155.58" width="2.04" height="2.03"/>
          <rect class="cls-1" x="235.7" y="153.55" width="2.04" height="2.03"/>
          <rect class="cls-16" x="233.66" y="161.67" width="2.04" height="2.03"/>
          <rect class="cls-16" x="233.66" y="159.64" width="2.04" height="2.03"/>
          <rect class="cls-8" x="233.66" y="157.61" width="2.04" height="2.03"/>
          <rect class="cls-8" x="233.66" y="155.58" width="2.04" height="2.03"/>
          <rect class="cls-1" x="233.66" y="153.55" width="2.04" height="2.03"/>
          <rect class="cls-16" x="231.62" y="161.67" width="2.04" height="2.03"/>
          <rect class="cls-8" x="231.62" y="159.64" width="2.04" height="2.03"/>
          <rect class="cls-16" x="231.62" y="157.61" width="2.04" height="2.03"/>
          <rect class="cls-8" x="231.62" y="155.58" width="2.04" height="2.03"/>
          <rect class="cls-8" x="229.58" y="161.67" width="2.04" height="2.03"/>
          <rect class="cls-8" x="229.58" y="159.64" width="2.04" height="2.03"/>
          <rect class="cls-8" x="229.58" y="157.61" width="2.04" height="2.03"/>
          <rect class="cls-1" x="229.58" y="155.58" width="2.04" height="2.03"/>
          <rect class="cls-8" x="227.54" y="161.67" width="2.04" height="2.03"/>
          <rect class="cls-1" x="227.54" y="159.64" width="2.04" height="2.03"/>
          <rect class="cls-1" x="227.54" y="157.61" width="2.04" height="2.03"/>
          <rect class="cls-1" x="225.5" y="161.67" width="2.04" height="2.03"/>
        </g>
        <g>
          <rect class="cls-8" x="47.96" y="161.67" width="2.04" height="2.03"/>
          <rect class="cls-16" x="45.91" y="161.67" width="2.04" height="2.03"/>
          <rect class="cls-8" x="45.91" y="159.64" width="2.04" height="2.03"/>
          <rect class="cls-8" x="43.87" y="161.67" width="2.04" height="2.03"/>
          <rect class="cls-16" x="43.87" y="159.64" width="2.04" height="2.03"/>
          <rect class="cls-1" x="43.87" y="157.61" width="2.04" height="2.03"/>
          <rect class="cls-8" x="41.83" y="161.67" width="2.04" height="2.03"/>
          <rect class="cls-8" x="41.83" y="159.64" width="2.04" height="2.03"/>
          <rect class="cls-16" x="41.83" y="157.61" width="2.04" height="2.03"/>
          <rect class="cls-1" x="41.83" y="155.58" width="2.04" height="2.03"/>
          <rect class="cls-16" x="39.79" y="161.67" width="2.04" height="2.03"/>
          <rect class="cls-8" x="39.79" y="159.64" width="2.04" height="2.03"/>
          <rect class="cls-8" x="39.79" y="157.61" width="2.04" height="2.03"/>
          <rect class="cls-1" x="39.79" y="155.58" width="2.04" height="2.03"/>
          <rect class="cls-1" x="39.79" y="153.55" width="2.04" height="2.03"/>
          <rect class="cls-16" x="37.75" y="161.67" width="2.04" height="2.03"/>
          <rect class="cls-16" x="37.75" y="159.64" width="2.04" height="2.03"/>
          <rect class="cls-8" x="37.75" y="157.61" width="2.04" height="2.03"/>
          <rect class="cls-1" x="37.75" y="155.58" width="2.04" height="2.03"/>
          <rect class="cls-1" x="37.75" y="153.55" width="2.04" height="2.03"/>
          <rect class="cls-16" x="35.71" y="161.67" width="2.04" height="2.03"/>
          <rect class="cls-16" x="35.71" y="159.64" width="2.04" height="2.03"/>
          <rect class="cls-8" x="35.71" y="157.61" width="2.04" height="2.03"/>
          <rect class="cls-1" x="35.71" y="155.58" width="2.04" height="2.03"/>
          <rect class="cls-8" x="33.67" y="161.67" width="2.04" height="2.03"/>
          <rect class="cls-8" x="33.67" y="159.64" width="2.04" height="2.03"/>
          <rect class="cls-1" x="33.67" y="157.61" width="2.04" height="2.03"/>
          <rect class="cls-8" x="31.63" y="161.67" width="2.04" height="2.03"/>
        </g>
        <g>
          <polygon class="cls-9" points="13.42 157.61 11.38 157.61 11.38 159.64 11.38 161.67 11.38 163.7 13.42 163.7 15.46 163.7 15.46 161.67 15.46 159.64 15.46 157.61 13.42 157.61"/>
          <polygon class="cls-11" points="13.42 155.58 11.38 155.58 11.38 157.61 13.42 157.61 15.46 157.61 15.46 155.58 13.42 155.58"/>
          <g>
            <polygon class="cls-12" points="21.59 153.55 21.59 155.58 21.59 157.61 23.63 157.61 23.63 155.58 23.63 153.55 21.59 153.55"/>
            <polygon class="cls-12" points="17.5 155.58 17.5 157.61 19.54 157.61 19.54 155.58 19.54 153.55 17.5 153.55 17.5 155.58"/>
            <rect class="cls-12" x="17.5" y="149.49" width="2.04" height="2.03"/>
            <rect class="cls-12" x="15.46" y="147.46" width="2.04" height="2.03"/>
            <polygon class="cls-12" points="11.38 151.52 11.38 153.55 11.38 155.58 13.42 155.58 15.46 155.58 15.46 153.55 15.46 151.52 13.42 151.52 11.38 151.52"/>
            <rect class="cls-12" x="11.38" y="145.43" width="2.04" height="2.03"/>
            <rect class="cls-12" x="9.34" y="147.46" width="2.04" height="2.03"/>
            <polygon class="cls-12" points="7.3 155.58 7.3 157.61 9.34 157.61 9.34 155.58 9.34 153.55 7.3 153.55 7.3 155.58"/>
          </g>
          <g>
            <path class="cls-15" d="M21.59,149.49v-2.03h-2.04v-2.03h-2.04v-2.03h-2.04v-2.03h-2.04v2.03h-2.04v2.03h2.04v2.03h-2.04v2.03h-2.04v-2.03h-2.04v2.03h-2.04v4.06h6.12v-2.03h4.08v2.03h8.16v-4.06h-2.04Zm-4.08,2.03v-2.03h-2.04v-2.03h2.04v2.03h2.04v2.03h-2.04Z"/>
            <rect class="cls-15" x="9.34" y="145.43" width="2.04" height="2.03"/>
          </g>
          <g>
            <rect class="cls-6" x="11.38" y="141.36" width="2.04" height="2.03"/>
            <rect class="cls-6" x="9.34" y="143.4" width="2.04" height="2.03"/>
            <rect class="cls-6" x="7.3" y="145.43" width="2.04" height="2.03"/>
            <rect class="cls-6" x="5.26" y="147.46" width="2.04" height="2.03"/>
            <polygon class="cls-6" points="3.22 151.52 3.22 153.55 3.22 155.58 3.22 157.61 5.26 157.61 5.26 155.58 5.26 153.55 5.26 151.52 5.26 149.49 3.22 149.49 3.22 151.52"/>
          </g>
        </g>
        <g>
          <polygon class="cls-9" points="110.73 156.17 108.2 156.17 108.2 158.68 108.2 161.19 108.2 163.7 110.73 163.7 113.25 163.7 113.25 161.19 113.25 158.68 113.25 156.17 110.73 156.17"/>
          <polygon class="cls-11" points="110.73 153.66 108.2 153.66 108.2 156.17 110.73 156.17 113.25 156.17 113.25 153.66 110.73 153.66"/>
          <g>
            <polygon class="cls-12" points="120.82 151.15 120.82 153.66 120.82 156.17 123.35 156.17 123.35 153.66 123.35 151.15 120.82 151.15"/>
            <polygon class="cls-12" points="115.77 153.66 115.77 156.17 118.3 156.17 118.3 153.66 118.3 151.15 115.77 151.15 115.77 153.66"/>
            <rect class="cls-12" x="115.77" y="146.12" width="2.52" height="2.51"/>
            <rect class="cls-12" x="113.25" y="143.61" width="2.52" height="2.51"/>
            <polygon class="cls-12" points="108.2 148.63 108.2 151.15 108.2 153.66 110.73 153.66 113.25 153.66 113.25 151.15 113.25 148.63 110.73 148.63 108.2 148.63"/>
            <rect class="cls-12" x="108.2" y="141.1" width="2.52" height="2.51"/>
            <rect class="cls-12" x="105.68" y="143.61" width="2.52" height="2.51"/>
            <polygon class="cls-12" points="103.16 153.66 103.16 156.17 105.68 156.17 105.68 153.66 105.68 151.15 103.16 151.15 103.16 153.66"/>
          </g>
          <g>
            <path class="cls-15" d="M120.82,146.12v-2.51h-2.52v-2.51h-2.52v-2.51h-2.52v-2.51h-2.52v2.51h-2.52v2.51h2.52v2.51h-2.52v2.51h-2.52v-2.51h-2.52v2.51h-2.52v5.02h7.57v-2.51h5.05v2.51h10.1v-5.02h-2.52Zm-5.05,2.51v-2.51h-2.52v-2.51h2.52v2.51h2.52v2.51h-2.52Z"/>
            <rect class="cls-15" x="105.68" y="141.1" width="2.52" height="2.51"/>
          </g>
          <g>
            <rect class="cls-6" x="108.2" y="136.08" width="2.52" height="2.51"/>
            <rect class="cls-6" x="105.68" y="138.59" width="2.52" height="2.51"/>
            <rect class="cls-6" x="103.16" y="141.1" width="2.52" height="2.51"/>
            <rect class="cls-6" x="100.63" y="143.61" width="2.52" height="2.51"/>
            <polygon class="cls-6" points="98.11 148.63 98.11 151.15 98.11 153.66 98.11 156.17 100.63 156.17 100.63 153.66 100.63 151.15 100.63 148.63 100.63 146.12 98.11 146.12 98.11 148.63"/>
          </g>
        </g>
        <g>
          <polygon class="cls-9" points="277.53 157.61 275.49 157.61 275.49 159.64 275.49 161.67 275.49 163.7 277.53 163.7 279.57 163.7 279.57 161.67 279.57 159.64 279.57 157.61 277.53 157.61"/>
          <polygon class="cls-11" points="277.53 155.58 275.49 155.58 275.49 157.61 277.53 157.61 279.57 157.61 279.57 155.58 277.53 155.58"/>
          <g>
            <polygon class="cls-12" points="285.7 153.55 285.7 155.58 285.7 157.61 287.74 157.61 287.74 155.58 287.74 153.55 285.7 153.55"/>
            <polygon class="cls-12" points="281.61 155.58 281.61 157.61 283.66 157.61 283.66 155.58 283.66 153.55 281.61 153.55 281.61 155.58"/>
            <rect class="cls-12" x="281.61" y="149.49" width="2.04" height="2.03"/>
            <rect class="cls-12" x="279.57" y="147.46" width="2.04" height="2.03"/>
            <polygon class="cls-12" points="275.49 151.52 275.49 153.55 275.49 155.58 277.53 155.58 279.57 155.58 279.57 153.55 279.57 151.52 277.53 151.52 275.49 151.52"/>
            <rect class="cls-12" x="275.49" y="145.43" width="2.04" height="2.03"/>
            <rect class="cls-12" x="273.45" y="147.46" width="2.04" height="2.03"/>
            <polygon class="cls-12" points="271.41 155.58 271.41 157.61 273.45 157.61 273.45 155.58 273.45 153.55 271.41 153.55 271.41 155.58"/>
          </g>
          <g>
            <path class="cls-15" d="M285.7,149.49v-2.03h-2.04v-2.03h-2.04v-2.03h-2.04v-2.03h-2.04v2.03h-2.04v2.03h2.04v2.03h-2.04v2.03h-2.04v-2.03h-2.04v2.03h-2.04v4.06h6.12v-2.03h4.08v2.03h8.16v-4.06h-2.04Zm-4.08,2.03v-2.03h-2.04v-2.03h2.04v2.03h2.04v2.03h-2.04Z"/>
            <rect class="cls-15" x="273.45" y="145.43" width="2.04" height="2.03"/>
          </g>
          <g>
            <rect class="cls-6" x="275.49" y="141.36" width="2.04" height="2.03"/>
            <rect class="cls-6" x="273.45" y="143.4" width="2.04" height="2.03"/>
            <rect class="cls-6" x="271.41" y="145.43" width="2.04" height="2.03"/>
            <rect class="cls-6" x="269.37" y="147.46" width="2.04" height="2.03"/>
            <polygon class="cls-6" points="267.33 151.52 267.33 153.55 267.33 155.58 267.33 157.61 269.37 157.61 269.37 155.58 269.37 153.55 269.37 151.52 269.37 149.49 267.33 149.49 267.33 151.52"/>
          </g>
        </g>
        <g>
          <polygon class="cls-9" points="315.29 154.94 312.35 154.94 312.35 157.87 312.35 160.78 312.35 163.7 315.29 163.7 318.22 163.7 318.22 160.78 318.22 157.87 318.22 154.94 315.29 154.94"/>
          <polygon class="cls-11" points="315.29 152.02 312.35 152.02 312.35 154.94 315.29 154.94 318.22 154.94 318.22 152.02 315.29 152.02"/>
          <g>
            <polygon class="cls-12" points="327.03 149.1 327.03 152.02 327.03 154.94 329.96 154.94 329.96 152.02 329.96 149.1 327.03 149.1"/>
            <polygon class="cls-12" points="321.16 152.02 321.16 154.94 324.09 154.94 324.09 152.02 324.09 149.1 321.16 149.1 321.16 152.02"/>
            <rect class="cls-12" x="321.16" y="143.26" width="2.94" height="2.92"/>
            <rect class="cls-12" x="318.22" y="140.34" width="2.93" height="2.92"/>
            <polygon class="cls-12" points="312.35 146.18 312.35 149.1 312.35 152.02 315.29 152.02 318.22 152.02 318.22 149.1 318.22 146.18 315.29 146.18 312.35 146.18"/>
            <rect class="cls-12" x="312.35" y="137.42" width="2.94" height="2.92"/>
            <rect class="cls-12" x="309.42" y="140.34" width="2.93" height="2.92"/>
            <polygon class="cls-12" points="306.48 152.02 306.48 154.94 309.42 154.94 309.42 152.02 309.42 149.1 306.48 149.1 306.48 152.02"/>
          </g>
          <g>
            <path class="cls-15" d="M327.03,143.26v-2.92h-2.94v-2.92h-2.94v-2.92h-2.93v-2.92h-2.93v2.92h-2.94v2.92h2.94v2.92h-2.94v2.92h-2.93v-2.92h-2.94v2.92h-2.94v5.84h8.8v-2.92h5.87v2.92h11.74v-5.84h-2.93Zm-5.87,2.92v-2.92h-2.93v-2.92h2.93v2.92h2.94v2.92h-2.94Z"/>
            <rect class="cls-15" x="309.42" y="137.42" width="2.93" height="2.92"/>
          </g>
          <g>
            <rect class="cls-6" x="312.35" y="131.58" width="2.94" height="2.92"/>
            <rect class="cls-6" x="309.42" y="134.5" width="2.93" height="2.92"/>
            <rect class="cls-6" x="306.48" y="137.42" width="2.94" height="2.92"/>
            <rect class="cls-6" x="303.55" y="140.34" width="2.94" height="2.92"/>
            <polygon class="cls-6" points="300.62 146.18 300.62 149.1 300.62 152.02 300.62 154.94 303.55 154.94 303.55 152.02 303.55 149.1 303.55 146.18 303.55 143.26 300.62 143.26 300.62 146.18"/>
          </g>
        </g>
        <g>
          <polygon class="cls-9" points="150.11 155.47 147.36 155.47 147.36 158.22 147.36 160.96 147.36 163.7 150.11 163.7 152.87 163.7 152.87 160.96 152.87 158.22 152.87 155.47 150.11 155.47"/>
          <polygon class="cls-11" points="150.11 152.73 147.36 152.73 147.36 155.47 150.11 155.47 152.87 155.47 152.87 152.73 150.11 152.73"/>
          <g>
            <polygon class="cls-12" points="161.14 149.99 161.14 152.73 161.14 155.47 163.89 155.47 163.89 152.73 163.89 149.99 161.14 149.99"/>
            <polygon class="cls-12" points="155.63 152.73 155.63 155.47 158.38 155.47 158.38 152.73 158.38 149.99 155.63 149.99 155.63 152.73"/>
            <rect class="cls-12" x="155.63" y="144.51" width="2.76" height="2.74"/>
            <rect class="cls-12" x="152.87" y="141.76" width="2.76" height="2.74"/>
            <polygon class="cls-12" points="147.36 147.25 147.36 149.99 147.36 152.73 150.11 152.73 152.87 152.73 152.87 149.99 152.87 147.25 150.11 147.25 147.36 147.25"/>
            <rect class="cls-12" x="147.36" y="139.02" width="2.76" height="2.74"/>
            <rect class="cls-12" x="144.6" y="141.76" width="2.75" height="2.74"/>
            <polygon class="cls-12" points="141.85 152.73 141.85 155.47 144.6 155.47 144.6 152.73 144.6 149.99 141.85 149.99 141.85 152.73"/>
          </g>
          <g>
            <path class="cls-15" d="M161.14,144.51v-2.74h-2.76v-2.74h-2.76v-2.74h-2.76v-2.74h-2.76v2.74h-2.76v2.74h2.76v2.74h-2.76v2.74h-2.75v-2.74h-2.76v2.74h-2.76v5.49h8.27v-2.74h5.51v2.74h11.02v-5.49h-2.76Zm-5.51,2.74v-2.74h-2.76v-2.74h2.76v2.74h2.76v2.74h-2.76Z"/>
            <rect class="cls-15" x="144.6" y="139.02" width="2.75" height="2.74"/>
          </g>
          <g>
            <rect class="cls-6" x="147.36" y="133.54" width="2.76" height="2.74"/>
            <rect class="cls-6" x="144.6" y="136.28" width="2.75" height="2.74"/>
            <rect class="cls-6" x="141.85" y="139.02" width="2.76" height="2.74"/>
            <rect class="cls-6" x="139.09" y="141.76" width="2.76" height="2.74"/>
            <polygon class="cls-6" points="136.34 147.25 136.34 149.99 136.34 152.73 136.34 155.47 139.09 155.47 139.09 152.73 139.09 149.99 139.09 147.25 139.09 144.51 136.34 144.51 136.34 147.25"/>
          </g>
        </g>
        <g>
          <g>
            <g>
              <polygon class="cls-9" points="59.18 175.89 57.14 175.89 57.14 177.92 61.22 177.92 61.22 175.89 59.18 175.89 59.18 175.89"/>
              <polygon class="cls-9" points="59.18 169.79 57.14 169.79 57.14 171.82 59.18 171.82 59.18 169.79 59.18 169.79"/>
              <polygon class="cls-9" points="57.14 171.82 55.1 171.82 55.1 173.86 57.14 173.86 57.14 171.82 57.14 171.82"/>
              <polygon class="cls-9" points="53.06 181.98 55.1 181.98 55.1 179.94 53.06 179.94 53.06 181.98 53.06 181.98"/>
              <polygon class="cls-9" points="55.1 169.79 55.1 167.76 53.06 167.76 53.06 169.79 55.1 169.79 55.1 169.79"/>
              <polygon class="cls-9" points="51.02 177.92 51.02 179.94 53.06 179.94 53.06 177.92 51.02 177.92 51.02 177.92"/>
              <polygon class="cls-9" points="53.06 165.73 51.02 165.73 51.02 167.76 53.06 167.76 53.06 165.73 53.06 165.73"/>
              <polygon class="cls-9" points="42.85 173.86 40.81 173.86 40.81 177.92 44.89 177.92 44.89 175.89 42.85 175.89 42.85 173.86 42.85 173.86"/>
              <polygon class="cls-9" points="42.85 167.76 40.81 167.76 40.81 169.79 42.85 169.79 42.85 167.76 42.85 167.76"/>
              <polygon class="cls-9" points="36.73 173.86 36.73 175.89 38.77 175.89 38.77 171.82 36.73 171.82 36.73 173.86 36.73 173.86"/>
              <polygon class="cls-9" points="34.69 177.92 36.73 177.92 36.73 175.89 34.69 175.89 34.69 177.92 34.69 177.92"/>
              <polygon class="cls-9" points="28.57 177.92 30.61 177.92 30.61 175.89 28.57 175.89 28.57 177.92 28.57 177.92"/>
              <polygon class="cls-9" points="26.53 179.94 28.57 179.94 28.57 177.92 26.53 177.92 26.53 179.94 26.53 179.94"/>
              <polygon class="cls-9" points="24.49 175.89 24.49 177.92 26.53 177.92 26.53 175.89 24.49 175.89 24.49 175.89"/>
              <polygon class="cls-9" points="16.33 175.89 14.28 175.89 14.28 177.92 12.24 177.92 12.24 179.94 18.37 179.94 18.37 177.92 16.33 177.92 16.33 175.89 16.33 175.89"/>
              <polygon class="cls-9" points="8.16 175.89 10.2 175.89 10.2 173.86 8.16 173.86 8.16 175.89 8.16 175.89"/>
              <polygon class="cls-9" points="4.08 175.89 4.08 177.92 8.16 177.92 8.16 175.89 4.08 175.89 4.08 175.89"/>
              <polygon class="cls-9" points="2.04 173.86 2.04 175.89 4.08 175.89 4.08 173.86 2.04 173.86 2.04 173.86"/>
            </g>
            <polygon class="cls-14" points="61.22 181.98 0 181.98 0 190.1 63.26 190.1 63.26 181.98 61.22 181.98 61.22 181.98"/>
            <g>
              <polygon class="cls-11" points="61.22 171.82 61.22 169.79 59.18 169.79 59.18 171.82 57.14 171.82 57.14 173.86 61.22 173.86 61.22 175.89 63.26 175.89 63.26 171.82 61.22 171.82 61.22 171.82"/>
              <polygon class="cls-11" points="59.18 167.76 59.18 165.73 57.14 165.73 57.14 169.79 59.18 169.79 59.18 167.76 59.18 167.76"/>
              <polygon class="cls-11" points="57.14 169.79 55.1 169.79 55.1 171.82 57.14 171.82 57.14 169.79 57.14 169.79"/>
              <path class="cls-11" d="M55.1,171.82h-4.08v-2.03h-2.04v-2.03h-2.04v2.03h-2.04v-2.03h-2.04v2.03h-2.04v-2.03h-2.04v2.03h-4.08v2.03h-2.04v2.03h-2.04v4.06h-2.04v2.03h-2.04v-2.03h-2.04v-2.03h2.04v-2.03h2.04v-4.06h6.12v-2.03h-4.08v-2.03h-2.04v2.03h-2.04v4.06h-4.08v-4.06h-4.08v-2.03h-2.04v4.06h4.08v2.03h-2.04v2.03h-2.04v-4.06h-4.08v2.03h-2.04v-2.03h-2.04v-2.03h-2.04v4.06H2.04v-2.03H0v12.19H53.06v-2.03h-2.04v-2.03h2.04v2.03h2.04v2.03h8.16v-4.06h-8.16v-2.03h2.04v-2.03h-2.04v-2.03h0Zm-53.06,2.03h2.04v2.03h4.08v-2.03h2.04v2.03h-2.04v2.03H4.08v-2.03H2.04v-2.03h0Zm14.28,6.09h-4.08v-2.03h2.04v-2.03h2.04v2.03h2.04v2.03h-2.04Zm22.45-8.12v4.06h-2.04v2.03h-2.04v-2.03h2.04v-4.06h2.04Zm10.21,4.06h-4.08v2.03h-4.08v-4.06h2.04v2.03h2.04v-2.03h2.04v-2.03h2.04v2.03h2.04v2.03h-2.04Z"/>
              <polygon class="cls-11" points="55.1 165.73 53.06 165.73 53.06 167.76 55.1 167.76 55.1 165.73 55.1 165.73"/>
              <polygon class="cls-11" points="42.85 165.73 40.81 165.73 40.81 167.76 42.85 167.76 42.85 165.73 42.85 165.73"/>
              <polygon class="cls-11" points="26.53 175.89 26.53 177.92 28.57 177.92 28.57 175.89 26.53 175.89 26.53 175.89"/>
              <polygon class="cls-11" points="10.2 165.73 8.16 165.73 8.16 167.76 10.2 167.76 10.2 165.73 10.2 165.73"/>
            </g>
            <g>
              <polygon class="cls-15" points="61.22 177.92 63.26 177.92 63.26 175.89 61.22 175.89 61.22 177.92 61.22 177.92"/>
              <polygon class="cls-15" points="61.22 165.73 59.18 165.73 59.18 169.79 61.22 169.79 61.22 171.82 63.26 171.82 63.26 165.73 61.22 165.73 61.22 165.73"/>
              <polygon class="cls-15" points="59.18 173.86 57.14 173.86 57.14 175.89 61.22 175.89 61.22 173.86 59.18 173.86 59.18 173.86"/>
              <polygon class="cls-15" points="55.1 177.92 57.14 177.92 57.14 175.89 55.1 175.89 55.1 177.92 55.1 177.92"/>
              <polygon class="cls-15" points="57.14 167.76 57.14 165.73 55.1 165.73 55.1 169.79 57.14 169.79 57.14 167.76 57.14 167.76"/>
              <polygon class="cls-15" points="55.1 169.79 53.06 169.79 53.06 167.76 51.02 167.76 51.02 165.73 42.85 165.73 42.85 167.76 44.89 167.76 44.89 169.79 46.94 169.79 46.94 167.76 48.98 167.76 48.98 169.79 51.02 169.79 51.02 171.82 55.1 171.82 55.1 169.79 55.1 169.79"/>
              <polygon class="cls-15" points="48.98 171.82 46.94 171.82 46.94 173.86 44.89 173.86 44.89 175.89 51.02 175.89 51.02 173.86 48.98 173.86 48.98 171.82 48.98 171.82"/>
              <polygon class="cls-15" points="36.73 165.73 30.61 165.73 30.61 167.76 34.69 167.76 34.69 169.79 38.77 169.79 38.77 167.76 40.81 167.76 40.81 165.73 36.73 165.73 36.73 165.73"/>
              <polygon class="cls-15" points="30.61 169.79 28.57 169.79 28.57 173.86 26.53 173.86 26.53 175.89 30.61 175.89 30.61 173.86 32.65 173.86 32.65 171.82 34.69 171.82 34.69 169.79 30.61 169.79 30.61 169.79"/>
              <polygon class="cls-15" points="26.53 169.79 26.53 167.76 28.57 167.76 28.57 165.73 18.37 165.73 18.37 167.76 22.45 167.76 22.45 171.82 26.53 171.82 26.53 169.79 26.53 169.79"/>
              <polygon class="cls-15" points="16.33 169.79 16.33 173.86 18.37 173.86 18.37 171.82 20.41 171.82 20.41 169.79 16.33 169.79 16.33 169.79"/>
              <polygon class="cls-15" points="16.33 165.73 10.2 165.73 10.2 167.76 8.16 167.76 8.16 169.79 10.2 169.79 10.2 171.82 12.24 171.82 12.24 169.79 16.33 169.79 16.33 165.73 16.33 165.73"/>
              <polygon class="cls-15" points="6.12 165.73 0 165.73 0 169.79 2.04 169.79 2.04 171.82 6.12 171.82 6.12 167.76 8.16 167.76 8.16 165.73 6.12 165.73 6.12 165.73"/>
            </g>
            <polygon class="cls-6" points="61.22 163.7 0 163.7 0 165.73 63.26 165.73 63.26 163.7 61.22 163.7 61.22 163.7"/>
          </g>
          <g>
            <g>
              <polygon class="cls-9" points="122.44 175.89 120.4 175.89 120.4 177.92 124.48 177.92 124.48 175.89 122.44 175.89 122.44 175.89"/>
              <polygon class="cls-9" points="122.44 169.79 120.4 169.79 120.4 171.82 122.44 171.82 122.44 169.79 122.44 169.79"/>
              <polygon class="cls-9" points="120.4 171.82 118.36 171.82 118.36 173.86 120.4 173.86 120.4 171.82 120.4 171.82"/>
              <polygon class="cls-9" points="116.32 181.98 118.36 181.98 118.36 179.94 116.32 179.94 116.32 181.98 116.32 181.98"/>
              <polygon class="cls-9" points="118.36 169.79 118.36 167.76 116.32 167.76 116.32 169.79 118.36 169.79 118.36 169.79"/>
              <polygon class="cls-9" points="114.28 177.92 114.28 179.94 116.32 179.94 116.32 177.92 114.28 177.92 114.28 177.92"/>
              <polygon class="cls-9" points="116.32 165.73 114.28 165.73 114.28 167.76 116.32 167.76 116.32 165.73 116.32 165.73"/>
              <polygon class="cls-9" points="106.12 173.86 104.07 173.86 104.07 177.92 108.16 177.92 108.16 175.89 106.12 175.89 106.12 173.86 106.12 173.86"/>
              <polygon class="cls-9" points="106.12 167.76 104.07 167.76 104.07 169.79 106.12 169.79 106.12 167.76 106.12 167.76"/>
              <polygon class="cls-9" points="99.99 173.86 99.99 175.89 102.03 175.89 102.03 171.82 99.99 171.82 99.99 173.86 99.99 173.86"/>
              <polygon class="cls-9" points="97.95 177.92 99.99 177.92 99.99 175.89 97.95 175.89 97.95 177.92 97.95 177.92"/>
              <polygon class="cls-9" points="91.83 177.92 93.87 177.92 93.87 175.89 91.83 175.89 91.83 177.92 91.83 177.92"/>
              <polygon class="cls-9" points="89.79 179.94 91.83 179.94 91.83 177.92 89.79 177.92 89.79 179.94 89.79 179.94"/>
              <polygon class="cls-9" points="87.75 175.89 87.75 177.92 89.79 177.92 89.79 175.89 87.75 175.89 87.75 175.89"/>
              <polygon class="cls-9" points="79.59 175.89 77.55 175.89 77.55 177.92 75.51 177.92 75.51 179.94 81.63 179.94 81.63 177.92 79.59 177.92 79.59 175.89 79.59 175.89"/>
              <polygon class="cls-9" points="71.43 175.89 73.46 175.89 73.46 173.86 71.43 173.86 71.43 175.89 71.43 175.89"/>
              <polygon class="cls-9" points="67.34 175.89 67.34 177.92 71.43 177.92 71.43 175.89 67.34 175.89 67.34 175.89"/>
              <polygon class="cls-9" points="65.3 173.86 65.3 175.89 67.34 175.89 67.34 173.86 65.3 173.86 65.3 173.86"/>
            </g>
            <polygon class="cls-14" points="124.48 181.98 63.26 181.98 63.26 190.1 126.52 190.1 126.52 181.98 124.48 181.98 124.48 181.98"/>
            <g>
              <polygon class="cls-11" points="124.48 171.82 124.48 169.79 122.44 169.79 122.44 171.82 120.4 171.82 120.4 173.86 124.48 173.86 124.48 175.89 126.52 175.89 126.52 171.82 124.48 171.82 124.48 171.82"/>
              <polygon class="cls-11" points="122.44 167.76 122.44 165.73 120.4 165.73 120.4 169.79 122.44 169.79 122.44 167.76 122.44 167.76"/>
              <polygon class="cls-11" points="120.4 169.79 118.36 169.79 118.36 171.82 120.4 171.82 120.4 169.79 120.4 169.79"/>
              <path class="cls-11" d="M118.36,171.82h-4.08v-2.03h-2.04v-2.03h-2.04v2.03h-2.04v-2.03h-2.04v2.03h-2.04v-2.03h-2.04v2.03h-4.08v2.03h-2.04v2.03h-2.04v4.06h-2.04v2.03h-2.04v-2.03h-2.04v-2.03h2.04v-2.03h2.04v-4.06h6.12v-2.03h-4.08v-2.03h-2.04v2.03h-2.04v4.06h-4.08v-4.06h-4.08v-2.03h-2.04v4.06h4.08v2.03h-2.04v2.03h-2.04v-4.06h-4.08v2.03h-2.04v-2.03h-2.04v-2.03h-2.04v4.06h-4.08v-2.03h-2.04v12.19h53.06v-2.03h-2.04v-2.03h2.04v2.03h2.04v2.03h8.16v-4.06h-8.16v-2.03h2.04v-2.03h-2.04v-2.03h0Zm-53.06,2.03h2.04v2.03h4.08v-2.03h2.04v2.03h-2.04v2.03h-4.08v-2.03h-2.04v-2.03h0Zm14.28,6.09h-4.08v-2.03h2.04v-2.03h2.04v2.03h2.04v2.03h-2.04Zm22.45-8.12v4.06h-2.04v2.03h-2.04v-2.03h2.04v-4.06h2.04Zm10.21,4.06h-4.08v2.03h-4.08v-4.06h2.04v2.03h2.04v-2.03h2.04v-2.03h2.04v2.03h2.04v2.03h-2.04Z"/>
              <polygon class="cls-11" points="118.36 165.73 116.32 165.73 116.32 167.76 118.36 167.76 118.36 165.73 118.36 165.73"/>
              <polygon class="cls-11" points="106.12 165.73 104.07 165.73 104.07 167.76 106.12 167.76 106.12 165.73 106.12 165.73"/>
              <polygon class="cls-11" points="89.79 175.89 89.79 177.92 91.83 177.92 91.83 175.89 89.79 175.89 89.79 175.89"/>
              <polygon class="cls-11" points="73.46 165.73 71.43 165.73 71.43 167.76 73.46 167.76 73.46 165.73 73.46 165.73"/>
            </g>
            <g>
              <polygon class="cls-15" points="124.48 177.92 126.52 177.92 126.52 175.89 124.48 175.89 124.48 177.92 124.48 177.92"/>
              <polygon class="cls-15" points="124.48 165.73 122.44 165.73 122.44 169.79 124.48 169.79 124.48 171.82 126.52 171.82 126.52 165.73 124.48 165.73 124.48 165.73"/>
              <polygon class="cls-15" points="122.44 173.86 120.4 173.86 120.4 175.89 124.48 175.89 124.48 173.86 122.44 173.86 122.44 173.86"/>
              <polygon class="cls-15" points="118.36 177.92 120.4 177.92 120.4 175.89 118.36 175.89 118.36 177.92 118.36 177.92"/>
              <polygon class="cls-15" points="120.4 167.76 120.4 165.73 118.36 165.73 118.36 169.79 120.4 169.79 120.4 167.76 120.4 167.76"/>
              <polygon class="cls-15" points="118.36 169.79 116.32 169.79 116.32 167.76 114.28 167.76 114.28 165.73 106.12 165.73 106.12 167.76 108.16 167.76 108.16 169.79 110.2 169.79 110.2 167.76 112.24 167.76 112.24 169.79 114.28 169.79 114.28 171.82 118.36 171.82 118.36 169.79 118.36 169.79"/>
              <polygon class="cls-15" points="112.24 171.82 110.2 171.82 110.2 173.86 108.16 173.86 108.16 175.89 114.28 175.89 114.28 173.86 112.24 173.86 112.24 171.82 112.24 171.82"/>
              <polygon class="cls-15" points="99.99 165.73 93.87 165.73 93.87 167.76 97.95 167.76 97.95 169.79 102.03 169.79 102.03 167.76 104.07 167.76 104.07 165.73 99.99 165.73 99.99 165.73"/>
              <polygon class="cls-15" points="93.87 169.79 91.83 169.79 91.83 173.86 89.79 173.86 89.79 175.89 93.87 175.89 93.87 173.86 95.91 173.86 95.91 171.82 97.95 171.82 97.95 169.79 93.87 169.79 93.87 169.79"/>
              <polygon class="cls-15" points="89.79 169.79 89.79 167.76 91.83 167.76 91.83 165.73 81.63 165.73 81.63 167.76 85.71 167.76 85.71 171.82 89.79 171.82 89.79 169.79 89.79 169.79"/>
              <polygon class="cls-15" points="79.59 169.79 79.59 173.86 81.63 173.86 81.63 171.82 83.67 171.82 83.67 169.79 79.59 169.79 79.59 169.79"/>
              <polygon class="cls-15" points="79.59 165.73 73.46 165.73 73.46 167.76 71.43 167.76 71.43 169.79 73.46 169.79 73.46 171.82 75.51 171.82 75.51 169.79 79.59 169.79 79.59 165.73 79.59 165.73"/>
              <polygon class="cls-15" points="69.38 165.73 63.26 165.73 63.26 169.79 65.3 169.79 65.3 171.82 69.38 171.82 69.38 167.76 71.43 167.76 71.43 165.73 69.38 165.73 69.38 165.73"/>
            </g>
            <polygon class="cls-6" points="124.48 163.7 63.26 163.7 63.26 165.73 126.52 165.73 126.52 163.7 124.48 163.7 124.48 163.7"/>
          </g>
          <g>
            <g>
              <polygon class="cls-9" points="185.7 175.89 183.66 175.89 183.66 177.92 187.74 177.92 187.74 175.89 185.7 175.89 185.7 175.89"/>
              <polygon class="cls-9" points="185.7 169.79 183.66 169.79 183.66 171.82 185.7 171.82 185.7 169.79 185.7 169.79"/>
              <polygon class="cls-9" points="183.66 171.82 181.62 171.82 181.62 173.86 183.66 173.86 183.66 171.82 183.66 171.82"/>
              <polygon class="cls-9" points="179.58 181.98 181.62 181.98 181.62 179.94 179.58 179.94 179.58 181.98 179.58 181.98"/>
              <polygon class="cls-9" points="181.62 169.79 181.62 167.76 179.58 167.76 179.58 169.79 181.62 169.79 181.62 169.79"/>
              <polygon class="cls-9" points="177.54 177.92 177.54 179.94 179.58 179.94 179.58 177.92 177.54 177.92 177.54 177.92"/>
              <polygon class="cls-9" points="179.58 165.73 177.54 165.73 177.54 167.76 179.58 167.76 179.58 165.73 179.58 165.73"/>
              <polygon class="cls-9" points="169.38 173.86 167.34 173.86 167.34 177.92 171.42 177.92 171.42 175.89 169.38 175.89 169.38 173.86 169.38 173.86"/>
              <polygon class="cls-9" points="169.38 167.76 167.34 167.76 167.34 169.79 169.38 169.79 169.38 167.76 169.38 167.76"/>
              <polygon class="cls-9" points="163.26 173.86 163.26 175.89 165.29 175.89 165.29 171.82 163.26 171.82 163.26 173.86 163.26 173.86"/>
              <polygon class="cls-9" points="161.22 177.92 163.26 177.92 163.26 175.89 161.22 175.89 161.22 177.92 161.22 177.92"/>
              <polygon class="cls-9" points="155.09 177.92 157.13 177.92 157.13 175.89 155.09 175.89 155.09 177.92 155.09 177.92"/>
              <polygon class="cls-9" points="153.05 179.94 155.09 179.94 155.09 177.92 153.05 177.92 153.05 179.94 153.05 179.94"/>
              <polygon class="cls-9" points="151.01 175.89 151.01 177.92 153.05 177.92 153.05 175.89 151.01 175.89 151.01 175.89"/>
              <polygon class="cls-9" points="142.85 175.89 140.81 175.89 140.81 177.92 138.77 177.92 138.77 179.94 144.89 179.94 144.89 177.92 142.85 177.92 142.85 175.89 142.85 175.89"/>
              <polygon class="cls-9" points="134.69 175.89 136.73 175.89 136.73 173.86 134.69 173.86 134.69 175.89 134.69 175.89"/>
              <polygon class="cls-9" points="130.61 175.89 130.61 177.92 134.69 177.92 134.69 175.89 130.61 175.89 130.61 175.89"/>
              <polygon class="cls-9" points="128.56 173.86 128.56 175.89 130.61 175.89 130.61 173.86 128.56 173.86 128.56 173.86"/>
            </g>
            <polygon class="cls-14" points="187.74 181.98 126.52 181.98 126.52 190.1 189.78 190.1 189.78 181.98 187.74 181.98 187.74 181.98"/>
            <g>
              <polygon class="cls-11" points="187.74 171.82 187.74 169.79 185.7 169.79 185.7 171.82 183.66 171.82 183.66 173.86 187.74 173.86 187.74 175.89 189.78 175.89 189.78 171.82 187.74 171.82 187.74 171.82"/>
              <polygon class="cls-11" points="185.7 167.76 185.7 165.73 183.66 165.73 183.66 169.79 185.7 169.79 185.7 167.76 185.7 167.76"/>
              <polygon class="cls-11" points="183.66 169.79 181.62 169.79 181.62 171.82 183.66 171.82 183.66 169.79 183.66 169.79"/>
              <path class="cls-11" d="M181.62,171.82h-4.08v-2.03h-2.04v-2.03h-2.04v2.03h-2.04v-2.03h-2.04v2.03h-2.04v-2.03h-2.04v2.03h-4.08v2.03h-2.04v2.03h-2.04v4.06h-2.04v2.03h-2.04v-2.03h-2.04v-2.03h2.04v-2.03h2.04v-4.06h6.12v-2.03h-4.08v-2.03h-2.04v2.03h-2.04v4.06h-4.08v-4.06h-4.08v-2.03h-2.04v4.06h4.08v2.03h-2.04v2.03h-2.04v-4.06h-4.08v2.03h-2.04v-2.03h-2.04v-2.03h-2.04v4.06h-4.08v-2.03h-2.04v12.19h53.06v-2.03h-2.04v-2.03h2.04v2.03h2.04v2.03h8.16v-4.06h-8.16v-2.03h2.04v-2.03h-2.04v-2.03h0Zm-53.06,2.03h2.04v2.03h4.08v-2.03h2.04v2.03h-2.04v2.03h-4.08v-2.03h-2.04v-2.03h0Zm14.28,6.09h-4.08v-2.03h2.04v-2.03h2.04v2.03h2.04v2.03h-2.04Zm22.45-8.12v4.06h-2.04v2.03h-2.04v-2.03h2.04v-4.06h2.04Zm10.2,4.06h-4.08v2.03h-4.08v-4.06h2.04v2.03h2.04v-2.03h2.04v-2.03h2.04v2.03h2.04v2.03h-2.04Z"/>
              <polygon class="cls-11" points="181.62 165.73 179.58 165.73 179.58 167.76 181.62 167.76 181.62 165.73 181.62 165.73"/>
              <polygon class="cls-11" points="169.38 165.73 167.34 165.73 167.34 167.76 169.38 167.76 169.38 165.73 169.38 165.73"/>
              <polygon class="cls-11" points="153.05 175.89 153.05 177.92 155.09 177.92 155.09 175.89 153.05 175.89 153.05 175.89"/>
              <polygon class="cls-11" points="136.73 165.73 134.69 165.73 134.69 167.76 136.73 167.76 136.73 165.73 136.73 165.73"/>
            </g>
            <g>
              <polygon class="cls-15" points="187.74 177.92 189.78 177.92 189.78 175.89 187.74 175.89 187.74 177.92 187.74 177.92"/>
              <polygon class="cls-15" points="187.74 165.73 185.7 165.73 185.7 169.79 187.74 169.79 187.74 171.82 189.78 171.82 189.78 165.73 187.74 165.73 187.74 165.73"/>
              <polygon class="cls-15" points="185.7 173.86 183.66 173.86 183.66 175.89 187.74 175.89 187.74 173.86 185.7 173.86 185.7 173.86"/>
              <polygon class="cls-15" points="181.62 177.92 183.66 177.92 183.66 175.89 181.62 175.89 181.62 177.92 181.62 177.92"/>
              <polygon class="cls-15" points="183.66 167.76 183.66 165.73 181.62 165.73 181.62 169.79 183.66 169.79 183.66 167.76 183.66 167.76"/>
              <polygon class="cls-15" points="181.62 169.79 179.58 169.79 179.58 167.76 177.54 167.76 177.54 165.73 169.38 165.73 169.38 167.76 171.42 167.76 171.42 169.79 173.46 169.79 173.46 167.76 175.5 167.76 175.5 169.79 177.54 169.79 177.54 171.82 181.62 171.82 181.62 169.79 181.62 169.79"/>
              <polygon class="cls-15" points="175.5 171.82 173.46 171.82 173.46 173.86 171.42 173.86 171.42 175.89 177.54 175.89 177.54 173.86 175.5 173.86 175.5 171.82 175.5 171.82"/>
              <polygon class="cls-15" points="163.26 165.73 157.13 165.73 157.13 167.76 161.22 167.76 161.22 169.79 165.29 169.79 165.29 167.76 167.34 167.76 167.34 165.73 163.26 165.73 163.26 165.73"/>
              <polygon class="cls-15" points="157.13 169.79 155.09 169.79 155.09 173.86 153.05 173.86 153.05 175.89 157.13 175.89 157.13 173.86 159.17 173.86 159.17 171.82 161.22 171.82 161.22 169.79 157.13 169.79 157.13 169.79"/>
              <polygon class="cls-15" points="153.05 169.79 153.05 167.76 155.09 167.76 155.09 165.73 144.89 165.73 144.89 167.76 148.97 167.76 148.97 171.82 153.05 171.82 153.05 169.79 153.05 169.79"/>
              <polygon class="cls-15" points="142.85 169.79 142.85 173.86 144.89 173.86 144.89 171.82 146.93 171.82 146.93 169.79 142.85 169.79 142.85 169.79"/>
              <polygon class="cls-15" points="142.85 165.73 136.73 165.73 136.73 167.76 134.69 167.76 134.69 169.79 136.73 169.79 136.73 171.82 138.77 171.82 138.77 169.79 142.85 169.79 142.85 165.73 142.85 165.73"/>
              <polygon class="cls-15" points="132.65 165.73 126.52 165.73 126.52 169.79 128.56 169.79 128.56 171.82 132.65 171.82 132.65 167.76 134.69 167.76 134.69 165.73 132.65 165.73 132.65 165.73"/>
            </g>
            <polygon class="cls-6" points="187.74 163.7 126.52 163.7 126.52 165.73 189.78 165.73 189.78 163.7 187.74 163.7 187.74 163.7"/>
          </g>
          <g>
            <g>
              <polygon class="cls-9" points="248.96 175.89 246.92 175.89 246.92 177.92 251.01 177.92 251.01 175.89 248.96 175.89 248.96 175.89"/>
              <polygon class="cls-9" points="248.96 169.79 246.92 169.79 246.92 171.82 248.96 171.82 248.96 169.79 248.96 169.79"/>
              <polygon class="cls-9" points="246.92 171.82 244.88 171.82 244.88 173.86 246.92 173.86 246.92 171.82 246.92 171.82"/>
              <polygon class="cls-9" points="242.84 181.98 244.88 181.98 244.88 179.94 242.84 179.94 242.84 181.98 242.84 181.98"/>
              <polygon class="cls-9" points="244.88 169.79 244.88 167.76 242.84 167.76 242.84 169.79 244.88 169.79 244.88 169.79"/>
              <polygon class="cls-9" points="240.8 177.92 240.8 179.94 242.84 179.94 242.84 177.92 240.8 177.92 240.8 177.92"/>
              <polygon class="cls-9" points="242.84 165.73 240.8 165.73 240.8 167.76 242.84 167.76 242.84 165.73 242.84 165.73"/>
              <polygon class="cls-9" points="232.64 173.86 230.6 173.86 230.6 177.92 234.68 177.92 234.68 175.89 232.64 175.89 232.64 173.86 232.64 173.86"/>
              <polygon class="cls-9" points="232.64 167.76 230.6 167.76 230.6 169.79 232.64 169.79 232.64 167.76 232.64 167.76"/>
              <polygon class="cls-9" points="226.52 173.86 226.52 175.89 228.56 175.89 228.56 171.82 226.52 171.82 226.52 173.86 226.52 173.86"/>
              <polygon class="cls-9" points="224.48 177.92 226.52 177.92 226.52 175.89 224.48 175.89 224.48 177.92 224.48 177.92"/>
              <polygon class="cls-9" points="218.35 177.92 220.39 177.92 220.39 175.89 218.35 175.89 218.35 177.92 218.35 177.92"/>
              <polygon class="cls-9" points="216.31 179.94 218.35 179.94 218.35 177.92 216.31 177.92 216.31 179.94 216.31 179.94"/>
              <polygon class="cls-9" points="214.27 175.89 214.27 177.92 216.31 177.92 216.31 175.89 214.27 175.89 214.27 175.89"/>
              <polygon class="cls-9" points="206.11 175.89 204.07 175.89 204.07 177.92 202.03 177.92 202.03 179.94 208.15 179.94 208.15 177.92 206.11 177.92 206.11 175.89 206.11 175.89"/>
              <polygon class="cls-9" points="197.95 175.89 199.99 175.89 199.99 173.86 197.95 173.86 197.95 175.89 197.95 175.89"/>
              <polygon class="cls-9" points="193.87 175.89 193.87 177.92 197.95 177.92 197.95 175.89 193.87 175.89 193.87 175.89"/>
              <polygon class="cls-9" points="191.83 173.86 191.83 175.89 193.87 175.89 193.87 173.86 191.83 173.86 191.83 173.86"/>
            </g>
            <polygon class="cls-14" points="251.01 181.98 189.78 181.98 189.78 190.1 253.05 190.1 253.05 181.98 251.01 181.98 251.01 181.98"/>
            <g>
              <polygon class="cls-11" points="251.01 171.82 251.01 169.79 248.96 169.79 248.96 171.82 246.92 171.82 246.92 173.86 251.01 173.86 251.01 175.89 253.05 175.89 253.05 171.82 251.01 171.82 251.01 171.82"/>
              <polygon class="cls-11" points="248.96 167.76 248.96 165.73 246.92 165.73 246.92 169.79 248.96 169.79 248.96 167.76 248.96 167.76"/>
              <polygon class="cls-11" points="246.92 169.79 244.88 169.79 244.88 171.82 246.92 171.82 246.92 169.79 246.92 169.79"/>
              <path class="cls-11" d="M244.88,171.82h-4.08v-2.03h-2.04v-2.03h-2.04v2.03h-2.04v-2.03h-2.04v2.03h-2.04v-2.03h-2.04v2.03h-4.08v2.03h-2.04v2.03h-2.04v4.06h-2.04v2.03h-2.04v-2.03h-2.04v-2.03h2.04v-2.03h2.04v-4.06h6.12v-2.03h-4.08v-2.03h-2.04v2.03h-2.04v4.06h-4.08v-4.06h-4.08v-2.03h-2.04v4.06h4.08v2.03h-2.04v2.03h-2.04v-4.06h-4.08v2.03h-2.04v-2.03h-2.04v-2.03h-2.04v4.06h-4.08v-2.03h-2.04v12.19h53.06v-2.03h-2.04v-2.03h2.04v2.03h2.04v2.03h8.16v-4.06h-8.16v-2.03h2.04v-2.03h-2.04v-2.03h0Zm-53.06,2.03h2.04v2.03h4.08v-2.03h2.04v2.03h-2.04v2.03h-4.08v-2.03h-2.04v-2.03h0Zm14.28,6.09h-4.08v-2.03h2.04v-2.03h2.04v2.03h2.04v2.03h-2.04Zm22.45-8.12v4.06h-2.04v2.03h-2.04v-2.03h2.04v-4.06h2.04Zm10.2,4.06h-4.08v2.03h-4.08v-4.06h2.04v2.03h2.04v-2.03h2.04v-2.03h2.04v2.03h2.04v2.03h-2.04Z"/>
              <polygon class="cls-11" points="244.88 165.73 242.84 165.73 242.84 167.76 244.88 167.76 244.88 165.73 244.88 165.73"/>
              <polygon class="cls-11" points="232.64 165.73 230.6 165.73 230.6 167.76 232.64 167.76 232.64 165.73 232.64 165.73"/>
              <polygon class="cls-11" points="216.31 175.89 216.31 177.92 218.35 177.92 218.35 175.89 216.31 175.89 216.31 175.89"/>
              <polygon class="cls-11" points="199.99 165.73 197.95 165.73 197.95 167.76 199.99 167.76 199.99 165.73 199.99 165.73"/>
            </g>
            <g>
              <polygon class="cls-15" points="251.01 177.92 253.05 177.92 253.05 175.89 251.01 175.89 251.01 177.92 251.01 177.92"/>
              <polygon class="cls-15" points="251.01 165.73 248.96 165.73 248.96 169.79 251.01 169.79 251.01 171.82 253.05 171.82 253.05 165.73 251.01 165.73 251.01 165.73"/>
              <polygon class="cls-15" points="248.96 173.86 246.92 173.86 246.92 175.89 251.01 175.89 251.01 173.86 248.96 173.86 248.96 173.86"/>
              <polygon class="cls-15" points="244.88 177.92 246.92 177.92 246.92 175.89 244.88 175.89 244.88 177.92 244.88 177.92"/>
              <polygon class="cls-15" points="246.92 167.76 246.92 165.73 244.88 165.73 244.88 169.79 246.92 169.79 246.92 167.76 246.92 167.76"/>
              <polygon class="cls-15" points="244.88 169.79 242.84 169.79 242.84 167.76 240.8 167.76 240.8 165.73 232.64 165.73 232.64 167.76 234.68 167.76 234.68 169.79 236.72 169.79 236.72 167.76 238.76 167.76 238.76 169.79 240.8 169.79 240.8 171.82 244.88 171.82 244.88 169.79 244.88 169.79"/>
              <polygon class="cls-15" points="238.76 171.82 236.72 171.82 236.72 173.86 234.68 173.86 234.68 175.89 240.8 175.89 240.8 173.86 238.76 173.86 238.76 171.82 238.76 171.82"/>
              <polygon class="cls-15" points="226.52 165.73 220.39 165.73 220.39 167.76 224.48 167.76 224.48 169.79 228.56 169.79 228.56 167.76 230.6 167.76 230.6 165.73 226.52 165.73 226.52 165.73"/>
              <polygon class="cls-15" points="220.39 169.79 218.35 169.79 218.35 173.86 216.31 173.86 216.31 175.89 220.39 175.89 220.39 173.86 222.44 173.86 222.44 171.82 224.48 171.82 224.48 169.79 220.39 169.79 220.39 169.79"/>
              <polygon class="cls-15" points="216.31 169.79 216.31 167.76 218.35 167.76 218.35 165.73 208.15 165.73 208.15 167.76 212.23 167.76 212.23 171.82 216.31 171.82 216.31 169.79 216.31 169.79"/>
              <polygon class="cls-15" points="206.11 169.79 206.11 173.86 208.15 173.86 208.15 171.82 210.19 171.82 210.19 169.79 206.11 169.79 206.11 169.79"/>
              <polygon class="cls-15" points="206.11 165.73 199.99 165.73 199.99 167.76 197.95 167.76 197.95 169.79 199.99 169.79 199.99 171.82 202.03 171.82 202.03 169.79 206.11 169.79 206.11 165.73 206.11 165.73"/>
              <polygon class="cls-15" points="195.91 165.73 189.78 165.73 189.78 169.79 191.83 169.79 191.83 171.82 195.91 171.82 195.91 167.76 197.95 167.76 197.95 165.73 195.91 165.73 195.91 165.73"/>
            </g>
            <polygon class="cls-6" points="251.01 163.7 189.78 163.7 189.78 165.73 253.05 165.73 253.05 163.7 251.01 163.7 251.01 163.7"/>
          </g>
          <g>
            <g>
              <polygon class="cls-9" points="312.23 175.89 310.18 175.89 310.18 177.92 314.27 177.92 314.27 175.89 312.23 175.89 312.23 175.89"/>
              <polygon class="cls-9" points="312.23 169.79 310.18 169.79 310.18 171.82 312.23 171.82 312.23 169.79 312.23 169.79"/>
              <polygon class="cls-9" points="310.18 171.82 308.14 171.82 308.14 173.86 310.18 173.86 310.18 171.82 310.18 171.82"/>
              <polygon class="cls-9" points="306.11 181.98 308.14 181.98 308.14 179.94 306.11 179.94 306.11 181.98 306.11 181.98"/>
              <polygon class="cls-9" points="308.14 169.79 308.14 167.76 306.11 167.76 306.11 169.79 308.14 169.79 308.14 169.79"/>
              <polygon class="cls-9" points="304.06 177.92 304.06 179.94 306.11 179.94 306.11 177.92 304.06 177.92 304.06 177.92"/>
              <polygon class="cls-9" points="306.11 165.73 304.06 165.73 304.06 167.76 306.11 167.76 306.11 165.73 306.11 165.73"/>
              <polygon class="cls-9" points="295.9 173.86 293.86 173.86 293.86 177.92 297.94 177.92 297.94 175.89 295.9 175.89 295.9 173.86 295.9 173.86"/>
              <polygon class="cls-9" points="295.9 167.76 293.86 167.76 293.86 169.79 295.9 169.79 295.9 167.76 295.9 167.76"/>
              <polygon class="cls-9" points="289.78 173.86 289.78 175.89 291.82 175.89 291.82 171.82 289.78 171.82 289.78 173.86 289.78 173.86"/>
              <polygon class="cls-9" points="287.74 177.92 289.78 177.92 289.78 175.89 287.74 175.89 287.74 177.92 287.74 177.92"/>
              <polygon class="cls-9" points="281.62 177.92 283.66 177.92 283.66 175.89 281.62 175.89 281.62 177.92 281.62 177.92"/>
              <polygon class="cls-9" points="279.57 179.94 281.62 179.94 281.62 177.92 279.57 177.92 279.57 179.94 279.57 179.94"/>
              <polygon class="cls-9" points="277.53 175.89 277.53 177.92 279.57 177.92 279.57 175.89 277.53 175.89 277.53 175.89"/>
              <polygon class="cls-9" points="269.37 175.89 267.33 175.89 267.33 177.92 265.29 177.92 265.29 179.94 271.41 179.94 271.41 177.92 269.37 177.92 269.37 175.89 269.37 175.89"/>
              <polygon class="cls-9" points="261.21 175.89 263.25 175.89 263.25 173.86 261.21 173.86 261.21 175.89 261.21 175.89"/>
              <polygon class="cls-9" points="257.13 175.89 257.13 177.92 261.21 177.92 261.21 175.89 257.13 175.89 257.13 175.89"/>
              <polygon class="cls-9" points="255.09 173.86 255.09 175.89 257.13 175.89 257.13 173.86 255.09 173.86 255.09 173.86"/>
            </g>
            <polygon class="cls-14" points="314.27 181.98 253.05 181.98 253.05 190.1 316.31 190.1 316.31 181.98 314.27 181.98 314.27 181.98"/>
            <g>
              <polygon class="cls-11" points="314.27 171.82 314.27 169.79 312.23 169.79 312.23 171.82 310.18 171.82 310.18 173.86 314.27 173.86 314.27 175.89 316.31 175.89 316.31 171.82 314.27 171.82 314.27 171.82"/>
              <polygon class="cls-11" points="312.23 167.76 312.23 165.73 310.18 165.73 310.18 169.79 312.23 169.79 312.23 167.76 312.23 167.76"/>
              <polygon class="cls-11" points="310.18 169.79 308.14 169.79 308.14 171.82 310.18 171.82 310.18 169.79 310.18 169.79"/>
              <path class="cls-11" d="M308.14,171.82h-4.08v-2.03h-2.04v-2.03h-2.04v2.03h-2.04v-2.03h-2.04v2.03h-2.04v-2.03h-2.04v2.03h-4.08v2.03h-2.04v2.03h-2.04v4.06h-2.04v2.03h-2.04v-2.03h-2.04v-2.03h2.04v-2.03h2.04v-4.06h6.12v-2.03h-4.08v-2.03h-2.04v2.03h-2.04v4.06h-4.08v-4.06h-4.08v-2.03h-2.04v4.06h4.08v2.03h-2.04v2.03h-2.04v-4.06h-4.08v2.03h-2.04v-2.03h-2.04v-2.03h-2.04v4.06h-4.08v-2.03h-2.04v12.19h53.06v-2.03h-2.04v-2.03h2.04v2.03h2.04v2.03h8.16v-4.06h-8.16v-2.03h2.04v-2.03h-2.04v-2.03h0Zm-53.06,2.03h2.04v2.03h4.08v-2.03h2.04v2.03h-2.04v2.03h-4.08v-2.03h-2.04v-2.03h0Zm14.28,6.09h-4.08v-2.03h2.04v-2.03h2.04v2.03h2.04v2.03h-2.04Zm22.45-8.12v4.06h-2.04v2.03h-2.04v-2.03h2.04v-4.06h2.04Zm10.2,4.06h-4.08v2.03h-4.08v-4.06h2.04v2.03h2.04v-2.03h2.04v-2.03h2.04v2.03h2.04v2.03h-2.04Z"/>
              <polygon class="cls-11" points="308.14 165.73 306.11 165.73 306.11 167.76 308.14 167.76 308.14 165.73 308.14 165.73"/>
              <polygon class="cls-11" points="295.9 165.73 293.86 165.73 293.86 167.76 295.9 167.76 295.9 165.73 295.9 165.73"/>
              <polygon class="cls-11" points="279.57 175.89 279.57 177.92 281.62 177.92 281.62 175.89 279.57 175.89 279.57 175.89"/>
              <polygon class="cls-11" points="263.25 165.73 261.21 165.73 261.21 167.76 263.25 167.76 263.25 165.73 263.25 165.73"/>
            </g>
            <g>
              <polygon class="cls-15" points="314.27 177.92 316.31 177.92 316.31 175.89 314.27 175.89 314.27 177.92 314.27 177.92"/>
              <polygon class="cls-15" points="314.27 165.73 312.23 165.73 312.23 169.79 314.27 169.79 314.27 171.82 316.31 171.82 316.31 165.73 314.27 165.73 314.27 165.73"/>
              <polygon class="cls-15" points="312.23 173.86 310.18 173.86 310.18 175.89 314.27 175.89 314.27 173.86 312.23 173.86 312.23 173.86"/>
              <polygon class="cls-15" points="308.14 177.92 310.18 177.92 310.18 175.89 308.14 175.89 308.14 177.92 308.14 177.92"/>
              <polygon class="cls-15" points="310.18 167.76 310.18 165.73 308.14 165.73 308.14 169.79 310.18 169.79 310.18 167.76 310.18 167.76"/>
              <polygon class="cls-15" points="308.14 169.79 306.11 169.79 306.11 167.76 304.06 167.76 304.06 165.73 295.9 165.73 295.9 167.76 297.94 167.76 297.94 169.79 299.98 169.79 299.98 167.76 302.02 167.76 302.02 169.79 304.06 169.79 304.06 171.82 308.14 171.82 308.14 169.79 308.14 169.79"/>
              <polygon class="cls-15" points="302.02 171.82 299.98 171.82 299.98 173.86 297.94 173.86 297.94 175.89 304.06 175.89 304.06 173.86 302.02 173.86 302.02 171.82 302.02 171.82"/>
              <polygon class="cls-15" points="289.78 165.73 283.66 165.73 283.66 167.76 287.74 167.76 287.74 169.79 291.82 169.79 291.82 167.76 293.86 167.76 293.86 165.73 289.78 165.73 289.78 165.73"/>
              <polygon class="cls-15" points="283.66 169.79 281.62 169.79 281.62 173.86 279.57 173.86 279.57 175.89 283.66 175.89 283.66 173.86 285.7 173.86 285.7 171.82 287.74 171.82 287.74 169.79 283.66 169.79 283.66 169.79"/>
              <polygon class="cls-15" points="279.57 169.79 279.57 167.76 281.62 167.76 281.62 165.73 271.41 165.73 271.41 167.76 275.5 167.76 275.5 171.82 279.57 171.82 279.57 169.79 279.57 169.79"/>
              <polygon class="cls-15" points="269.37 169.79 269.37 173.86 271.41 173.86 271.41 171.82 273.45 171.82 273.45 169.79 269.37 169.79 269.37 169.79"/>
              <polygon class="cls-15" points="269.37 165.73 263.25 165.73 263.25 167.76 261.21 167.76 261.21 169.79 263.25 169.79 263.25 171.82 265.29 171.82 265.29 169.79 269.37 169.79 269.37 165.73 269.37 165.73"/>
              <polygon class="cls-15" points="259.17 165.73 253.05 165.73 253.05 169.79 255.09 169.79 255.09 171.82 259.17 171.82 259.17 167.76 261.21 167.76 261.21 165.73 259.17 165.73 259.17 165.73"/>
            </g>
            <polygon class="cls-6" points="314.27 163.7 253.05 163.7 253.05 165.73 316.31 165.73 316.31 163.7 314.27 163.7 314.27 163.7"/>
          </g>
          <g>
            <rect class="cls-9" x="344.88" y="175.89" width="2.04" height="2.03"/>
            <rect class="cls-9" x="342.84" y="177.92" width="2.04" height="2.03"/>
            <rect class="cls-9" x="340.8" y="175.89" width="2.04" height="2.03"/>
            <polygon class="cls-9" points="332.63 175.89 330.59 175.89 330.59 177.92 328.55 177.92 328.55 179.94 332.63 179.94 334.67 179.94 334.67 177.92 332.63 177.92 332.63 175.89"/>
            <rect class="cls-9" x="324.47" y="173.86" width="2.04" height="2.03"/>
            <rect class="cls-9" x="320.39" y="175.89" width="4.08" height="2.03"/>
            <rect class="cls-9" x="318.35" y="173.86" width="2.04" height="2.03"/>
            <rect class="cls-14" x="316.31" y="181.98" width="33.69" height="8.12"/>
            <path class="cls-11" d="M350,171.82h-1.04v2.03h-2.04v4.06h-2.04v2.03h-2.04v-2.03h-2.04v-2.03h2.04v-2.03h2.04v-4.06h5.12v-2.03h-3.08v-2.03h-2.04v2.03h-2.04v4.06h-4.08v-4.06h-4.08v-2.03h-2.04v4.06h4.08v2.03h-2.04v2.03h-2.04v-4.06h-4.08v2.03h-2.04v-2.03h-2.04v-2.03h-2.04v4.06h-4.08v-2.03h-2.04v12.19h33.69v-10.15Zm-23.49,4.06h-2.04v2.03h-4.08v-2.03h-2.04v-2.03h2.04v2.03h4.08v-2.03h2.04v2.03Zm8.16,4.06h-6.12v-2.03h2.04v-2.03h2.04v2.03h2.04v2.03Z"/>
            <rect class="cls-11" x="342.84" y="175.89" width="2.04" height="2.03"/>
            <rect class="cls-11" x="324.47" y="165.73" width="2.04" height="2.03"/>
            <rect class="cls-15" x="346.92" y="165.73" width="3.08" height="2.03"/>
            <polygon class="cls-15" points="344.88 169.79 344.88 173.86 342.84 173.86 342.84 175.89 344.88 175.89 346.92 175.89 346.92 173.86 348.96 173.86 348.96 171.82 350 171.82 350 169.79 346.92 169.79 344.88 169.79"/>
            <polygon class="cls-15" points="334.67 167.76 338.76 167.76 338.76 171.82 342.84 171.82 342.84 169.79 342.84 167.76 344.88 167.76 344.88 165.73 334.67 165.73 334.67 167.76"/>
            <polygon class="cls-15" points="334.67 173.86 334.67 171.82 336.72 171.82 336.72 169.79 332.63 169.79 332.63 173.86 334.67 173.86"/>
            <polygon class="cls-15" points="326.51 167.76 324.47 167.76 324.47 169.79 326.51 169.79 326.51 171.82 328.55 171.82 328.55 169.79 332.63 169.79 332.63 165.73 326.51 165.73 326.51 167.76"/>
            <polygon class="cls-15" points="318.35 171.82 322.43 171.82 322.43 167.76 324.47 167.76 324.47 165.73 322.43 165.73 316.31 165.73 316.31 169.79 318.35 169.79 318.35 171.82"/>
            <polygon class="cls-6" points="324.47 165.73 326.51 165.73 332.63 165.73 334.67 165.73 344.88 165.73 346.92 165.73 350 165.73 350 163.7 316.31 163.7 316.31 165.73 322.43 165.73 324.47 165.73"/>
          </g>
        </g>
        <g>
          <rect class="cls-8" x="337.23" y="161.67" width="2.04" height="2.03"/>
          <rect class="cls-16" x="335.19" y="161.67" width="2.04" height="2.03"/>
          <rect class="cls-8" x="335.19" y="159.64" width="2.04" height="2.03"/>
          <rect class="cls-8" x="333.15" y="161.67" width="2.04" height="2.03"/>
          <rect class="cls-16" x="333.15" y="159.64" width="2.04" height="2.03"/>
          <rect class="cls-1" x="333.15" y="157.61" width="2.04" height="2.03"/>
          <rect class="cls-8" x="331.11" y="161.67" width="2.04" height="2.03"/>
          <rect class="cls-8" x="331.11" y="159.64" width="2.04" height="2.03"/>
          <rect class="cls-16" x="331.11" y="157.61" width="2.04" height="2.03"/>
          <rect class="cls-1" x="331.11" y="155.58" width="2.04" height="2.03"/>
          <rect class="cls-16" x="329.07" y="161.67" width="2.04" height="2.03"/>
          <rect class="cls-8" x="329.07" y="159.64" width="2.04" height="2.03"/>
          <rect class="cls-8" x="329.07" y="157.61" width="2.04" height="2.03"/>
          <rect class="cls-1" x="329.07" y="155.58" width="2.04" height="2.03"/>
          <rect class="cls-1" x="329.07" y="153.55" width="2.04" height="2.03"/>
          <rect class="cls-16" x="327.03" y="161.67" width="2.04" height="2.03"/>
          <rect class="cls-16" x="327.03" y="159.64" width="2.04" height="2.03"/>
          <rect class="cls-8" x="327.03" y="157.61" width="2.04" height="2.03"/>
          <rect class="cls-1" x="327.03" y="155.58" width="2.04" height="2.03"/>
          <rect class="cls-1" x="327.03" y="153.55" width="2.04" height="2.03"/>
          <rect class="cls-16" x="324.99" y="161.67" width="2.04" height="2.03"/>
          <rect class="cls-16" x="324.99" y="159.64" width="2.04" height="2.03"/>
          <rect class="cls-8" x="324.99" y="157.61" width="2.04" height="2.03"/>
          <rect class="cls-1" x="324.99" y="155.58" width="2.04" height="2.03"/>
          <rect class="cls-8" x="322.95" y="161.67" width="2.04" height="2.03"/>
          <rect class="cls-8" x="322.95" y="159.64" width="2.04" height="2.03"/>
          <rect class="cls-1" x="322.95" y="157.61" width="2.04" height="2.03"/>
          <rect class="cls-8" x="320.9" y="161.67" width="2.04" height="2.03"/>
        </g>
        <path class="cls-2" d="M342.41,87.03h-1.08v-2.15h-1.08v2.15h-2.16v1.08h2.16v2.15h1.08v-2.15h2.16v-1.08h-1.08Zm-1.08,1.08h-1.08v-1.08h1.08v1.08Z"/>
        <path class="cls-2" d="M42.5,98.79h-1.08v-2.15h-1.08v2.15h-2.16v1.08h2.16v2.15h1.08v-2.15h2.16v-1.08h-1.08Zm-1.08,1.08h-1.08v-1.08h1.08v1.08Z"/>
        <path class="cls-2" d="M322.6,47.33h-1.08v-2.15h-1.08v2.15h-2.16v1.08h2.16v2.15h1.08v-2.15h2.16v-1.08h-1.08Zm-1.08,1.08h-1.08v-1.08h1.08v1.08Z"/>
        <path class="cls-2" d="M289.09,71.51h-1.08v-2.15h-1.08v2.15h-2.16v1.08h2.16v2.15h1.08v-2.15h2.16v-1.08h-1.08Zm-1.08,1.08h-1.08v-1.08h1.08v1.08Z"/>
        <path class="cls-2" d="M28.53,45.66h-1.08v-2.15h-1.08v2.15h-2.16v1.08h2.16v2.15h1.08v-2.15h2.16v-1.08h-1.08Zm-1.08,1.08h-1.08v-1.08h1.08v1.08Z"/>
        <path class="cls-2" d="M61.99,68.28h-1.08v-2.15h-1.08v2.15h-2.16v1.08h2.16v2.15h1.08v-2.15h2.16v-1.08h-1.08Zm-1.08,1.08h-1.08v-1.08h1.08v1.08Z"/>
        <g>
          <g>
            <g>
              <rect class="cls-5" x="264.75" y="46.83" width="1.09" height="1.09" transform="translate(-2.96 21.58) rotate(-4.63)"/>
              <rect class="cls-5" x="263.75" y="48" width="1.09" height="1.09" transform="translate(-3.09 21.82) rotate(-4.7)"/>
              <rect class="cls-5" x="262.76" y="49.18" width="1.09" height="1.09" transform="translate(-3.18 21.69) rotate(-4.69)"/>
              <rect class="cls-5" x="261.76" y="50.35" width="1.09" height="1.09" transform="translate(-3.29 21.65) rotate(-4.7)"/>
              <rect class="cls-5" x="260.76" y="51.53" width="1.09" height="1.09" transform="translate(-3.38 21.53) rotate(-4.69)"/>
              <polygon class="cls-4" points="264.62 45.79 263.53 45.88 263.62 46.97 262.54 47.05 262.62 48.14 261.54 48.23 261.63 49.31 260.54 49.4 260.63 50.49 259.55 50.58 259.63 51.66 259.72 52.75 260.81 52.66 260.72 51.57 261.8 51.48 261.72 50.4 262.8 50.31 262.71 49.23 263.8 49.14 263.71 48.05 264.79 47.96 264.71 46.88 265.79 46.79 265.7 45.7 264.62 45.79"/>
              <g>
                <polygon class="cls-10" points="265.61 44.62 264.53 44.71 263.44 44.8 263.53 45.88 264.62 45.79 265.7 45.7 265.79 46.79 265.88 47.87 266.97 47.79 266.88 46.7 266.79 45.62 266.7 44.53 265.61 44.62"/>
                <rect class="cls-10" x="264.84" y="47.92" width="1.09" height="1.09" transform="translate(-3.05 21.64) rotate(-4.64)"/>
                <rect class="cls-10" x="263.84" y="49.09" width="1.09" height="1.09" transform="translate(-3.16 21.7) rotate(-4.67)"/>
                <rect class="cls-10" x="262.84" y="50.26" width="1.09" height="1.09" transform="translate(-3.26 21.6) rotate(-4.67)"/>
                <rect class="cls-10" x="262.49" y="45.92" width="1.09" height="1.09" transform="translate(-2.91 21.58) rotate(-4.67)"/>
                <rect class="cls-10" x="261.85" y="51.44" width="1.09" height="1.09" transform="translate(-3.35 21.41) rotate(-4.64)"/>
                <rect class="cls-10" x="261.49" y="47.1" width="1.09" height="1.09" transform="translate(-3.01 21.5) rotate(-4.67)"/>
                <rect class="cls-10" x="260.5" y="48.27" width="1.09" height="1.09" transform="translate(-3.11 21.4) rotate(-4.67)"/>
                <polygon class="cls-10" points="259.72 52.75 259.63 51.66 259.55 50.58 258.46 50.66 258.55 51.75 258.64 52.84 258.73 53.92 259.81 53.83 260.9 53.74 261.98 53.65 261.89 52.57 260.81 52.66 259.72 52.75"/>
                <rect class="cls-10" x="259.5" y="49.44" width="1.09" height="1.09" transform="translate(-3.22 21.47) rotate(-4.7)"/>
              </g>
            </g>
            <g>
              <rect class="cls-5" x="273.87" y="61.71" width="1.09" height="1.09" transform="translate(49.33 231.12) rotate(-49.66)"/>
              <rect class="cls-5" x="272.33" y="61.83" width="1.09" height="1.09" transform="translate(48.64 229.92) rotate(-49.64)"/>
              <rect class="cls-5" x="270.8" y="61.96" width="1.09" height="1.09" transform="translate(48 228.79) rotate(-49.64)"/>
              <rect class="cls-5" x="269.26" y="62.08" width="1.09" height="1.09" transform="translate(47.37 227.67) rotate(-49.64)"/>
              <rect class="cls-5" x="267.73" y="62.21" width="1.09" height="1.09" transform="translate(46.74 226.55) rotate(-49.64)"/>
              <polygon class="cls-4" points="275.05 60.65 274.22 59.95 273.52 60.78 272.69 60.07 271.98 60.9 271.15 60.2 270.45 61.03 269.62 60.33 268.91 61.15 268.08 60.45 267.38 61.28 266.67 62.11 267.5 62.81 268.21 61.98 269.04 62.69 269.74 61.86 270.57 62.56 271.28 61.73 272.11 62.44 272.81 61.61 273.64 62.31 274.35 61.48 275.18 62.19 275.88 61.36 275.05 60.65"/>
              <g>
                <polygon class="cls-10" points="276.59 60.53 275.76 59.82 274.93 59.12 274.22 59.95 275.05 60.65 275.88 61.36 275.18 62.19 274.47 63.02 275.3 63.72 276.01 62.89 276.71 62.06 277.42 61.23 276.59 60.53"/>
                <rect class="cls-10" x="273.16" y="62.54" width="1.09" height="1.09" transform="translate(48.48 230.91) rotate(-49.67)"/>
                <rect class="cls-10" x="271.63" y="62.66" width="1.09" height="1.09" transform="translate(47.83 229.77) rotate(-49.67)"/>
                <rect class="cls-10" x="270.09" y="62.79" width="1.09" height="1.09" transform="translate(47.14 228.57) rotate(-49.65)"/>
                <rect class="cls-10" x="272.91" y="59.47" width="1.09" height="1.09" transform="translate(50.67 229.56) rotate(-49.65)"/>
                <rect class="cls-10" x="268.56" y="62.91" width="1.09" height="1.09" transform="translate(46.56 227.52) rotate(-49.67)"/>
                <rect class="cls-10" x="271.38" y="59.59" width="1.09" height="1.09" transform="translate(50.01 228.41) rotate(-49.64)"/>
                <rect class="cls-10" x="269.84" y="59.72" width="1.09" height="1.09" transform="translate(49.38 227.28) rotate(-49.64)"/>
                <polygon class="cls-10" points="266.67 62.11 267.38 61.28 268.08 60.45 267.25 59.74 266.55 60.58 265.84 61.41 265.14 62.24 265.97 62.94 266.8 63.64 267.63 64.35 268.33 63.52 267.5 62.81 266.67 62.11"/>
                <rect class="cls-10" x="268.31" y="59.84" width="1.09" height="1.09" transform="translate(48.86 226.31) rotate(-49.68)"/>
              </g>
            </g>
            <g>
              <rect class="cls-5" x="270.92" y="52.53" width="1.09" height="1.09" transform="translate(168.78 309.91) rotate(-79.27)"/>
              <rect class="cls-5" x="269.65" y="53.4" width="1.09" height="1.09" transform="translate(166.95 309.39) rotate(-79.28)"/>
              <rect class="cls-5" x="268.38" y="54.27" width="1.09" height="1.09" transform="translate(165 308.83) rotate(-79.27)"/>
              <rect class="cls-5" x="267.11" y="55.13" width="1.09" height="1.09" transform="translate(163.09 308.27) rotate(-79.26)"/>
              <rect class="cls-5" x="265.83" y="56" width="1.09" height="1.09" transform="translate(161.51 307.86) rotate(-79.33)"/>
              <polygon class="cls-4" points="271.23 51.37 270.16 51.17 269.96 52.24 268.89 52.03 268.69 53.1 267.62 52.9 267.42 53.97 266.35 53.77 266.15 54.84 265.08 54.64 264.87 55.71 264.67 56.78 265.74 56.98 265.94 55.91 267.01 56.11 267.22 55.04 268.29 55.24 268.49 54.17 269.56 54.38 269.76 53.31 270.83 53.51 271.03 52.44 272.1 52.64 272.3 51.57 271.23 51.37"/>
              <g>
                <polygon class="cls-10" points="272.51 50.5 271.44 50.3 270.37 50.1 270.16 51.17 271.23 51.37 272.3 51.57 272.1 52.64 271.9 53.71 272.97 53.91 273.17 52.84 273.37 51.77 273.58 50.7 272.51 50.5"/>
                <rect class="cls-10" x="270.72" y="53.6" width="1.09" height="1.09" transform="translate(167.68 310.63) rotate(-79.3)"/>
                <rect class="cls-10" x="269.45" y="54.47" width="1.09" height="1.09" transform="translate(165.85 310.11) rotate(-79.31)"/>
                <rect class="cls-10" x="268.18" y="55.34" width="1.09" height="1.09" transform="translate(163.91 309.55) rotate(-79.3)"/>
                <rect class="cls-10" x="268.98" y="51.06" width="1.09" height="1.09" transform="translate(168.66 306.81) rotate(-79.27)"/>
                <rect class="cls-10" x="266.9" y="56.2" width="1.09" height="1.09" transform="translate(162.09 309.04) rotate(-79.31)"/>
                <rect class="cls-10" x="267.71" y="51.92" width="1.09" height="1.09" transform="translate(167.04 306.38) rotate(-79.33)"/>
                <rect class="cls-10" x="266.44" y="52.79" width="1.09" height="1.09" transform="translate(164.89 305.73) rotate(-79.27)"/>
                <polygon class="cls-10" points="264.67 56.78 264.87 55.71 265.08 54.64 264.01 54.44 263.8 55.51 263.6 56.58 263.4 57.65 264.47 57.85 265.54 58.05 266.61 58.25 266.81 57.18 265.74 56.98 264.67 56.78"/>
                <rect class="cls-10" x="265.17" y="53.66" width="1.09" height="1.09" transform="translate(163.12 305.23) rotate(-79.3)"/>
              </g>
            </g>
          </g>
          <g>
            <g>
              <rect class="cls-5" x="84.17" y="46.83" width="1.09" height="1.09" transform="translate(30.63 127.97) rotate(-85.36)"/>
              <rect class="cls-5" x="85.16" y="48" width="1.09" height="1.09" transform="translate(30.3 129.99) rotate(-85.3)"/>
              <rect class="cls-5" x="86.16" y="49.18" width="1.09" height="1.09" transform="translate(30.05 132.06) rotate(-85.3)"/>
              <rect class="cls-5" x="87.16" y="50.35" width="1.09" height="1.09" transform="translate(29.79 134.13) rotate(-85.3)"/>
              <rect class="cls-5" x="88.15" y="51.53" width="1.09" height="1.09" transform="translate(29.54 136.21) rotate(-85.3)"/>
              <polygon class="cls-4" points="85.39 45.79 86.47 45.88 86.38 46.97 87.47 47.05 87.38 48.14 88.46 48.23 88.38 49.31 89.46 49.4 89.37 50.49 90.46 50.58 90.37 51.66 90.28 52.75 89.2 52.66 89.28 51.57 88.2 51.48 88.29 50.4 87.2 50.31 87.29 49.23 86.21 49.14 86.29 48.05 85.21 47.96 85.3 46.88 84.21 46.79 84.3 45.7 85.39 45.79"/>
              <g>
                <polygon class="cls-10" points="84.39 44.62 85.47 44.71 86.56 44.8 86.47 45.88 85.39 45.79 84.3 45.7 84.21 46.79 84.12 47.87 83.04 47.79 83.13 46.7 83.21 45.62 83.3 44.53 84.39 44.62"/>
                <rect class="cls-10" x="84.08" y="47.92" width="1.09" height="1.09" transform="translate(29.47 128.88) rotate(-85.36)"/>
                <rect class="cls-10" x="85.07" y="49.09" width="1.09" height="1.09" transform="translate(29.18 130.93) rotate(-85.33)"/>
                <rect class="cls-10" x="86.07" y="50.26" width="1.09" height="1.09" transform="translate(28.93 133) rotate(-85.33)"/>
                <rect class="cls-10" x="86.42" y="45.92" width="1.09" height="1.09" transform="translate(33.57 129.36) rotate(-85.33)"/>
                <rect class="cls-10" x="87.07" y="51.44" width="1.09" height="1.09" transform="translate(28.71 135.1) rotate(-85.36)"/>
                <rect class="cls-10" x="87.42" y="47.1" width="1.09" height="1.09" transform="translate(33.32 131.43) rotate(-85.33)"/>
                <rect class="cls-10" x="88.42" y="48.27" width="1.09" height="1.09" transform="translate(33.07 133.51) rotate(-85.33)"/>
                <polygon class="cls-10" points="90.28 52.75 90.37 51.66 90.46 50.58 91.54 50.66 91.45 51.75 91.37 52.84 91.28 53.92 90.19 53.83 89.11 53.74 88.02 53.65 88.11 52.57 89.2 52.66 90.28 52.75"/>
                <rect class="cls-10" x="89.42" y="49.44" width="1.09" height="1.09" transform="translate(32.77 135.55) rotate(-85.3)"/>
              </g>
            </g>
            <g>
              <rect class="cls-5" x="75.05" y="61.71" width="1.09" height="1.09" transform="translate(-22.32 63.73) rotate(-40.34)"/>
              <rect class="cls-5" x="76.58" y="61.83" width="1.09" height="1.09" transform="translate(-22.04 64.78) rotate(-40.35)"/>
              <rect class="cls-5" x="78.12" y="61.96" width="1.09" height="1.09" transform="translate(-21.75 65.81) rotate(-40.35)"/>
              <rect class="cls-5" x="79.65" y="62.08" width="1.09" height="1.09" transform="translate(-21.47 66.82) rotate(-40.35)"/>
              <rect class="cls-5" x="81.19" y="62.21" width="1.09" height="1.09" transform="translate(-21.19 67.85) rotate(-40.35)"/>
              <polygon class="cls-4" points="74.95 60.65 75.78 59.95 76.48 60.78 77.31 60.07 78.02 60.9 78.85 60.2 79.55 61.03 80.38 60.33 81.09 61.15 81.92 60.45 82.62 61.28 83.33 62.11 82.5 62.81 81.79 61.98 80.96 62.69 80.26 61.86 79.43 62.56 78.72 61.73 77.89 62.44 77.19 61.61 76.36 62.31 75.65 61.48 74.82 62.19 74.12 61.36 74.95 60.65"/>
              <g>
                <polygon class="cls-10" points="73.41 60.53 74.24 59.82 75.07 59.12 75.78 59.95 74.95 60.65 74.12 61.36 74.82 62.19 75.53 63.02 74.7 63.72 73.99 62.89 73.29 62.06 72.58 61.23 73.41 60.53"/>
                <rect class="cls-10" x="75.75" y="62.54" width="1.09" height="1.09" transform="translate(-22.69 64.38) rotate(-40.34)"/>
                <rect class="cls-10" x="77.29" y="62.66" width="1.09" height="1.09" transform="translate(-22.41 65.4) rotate(-40.33)"/>
                <rect class="cls-10" x="78.82" y="62.79" width="1.09" height="1.09" transform="translate(-22.12 66.46) rotate(-40.36)"/>
                <rect class="cls-10" x="76" y="59.47" width="1.09" height="1.09" transform="translate(-20.64 63.85) rotate(-40.36)"/>
                <rect class="cls-10" x="80.36" y="62.91" width="1.09" height="1.09" transform="translate(-21.84 67.44) rotate(-40.33)"/>
                <rect class="cls-10" x="77.54" y="59.59" width="1.09" height="1.09" transform="translate(-20.36 64.87) rotate(-40.36)"/>
                <rect class="cls-10" x="79.07" y="59.72" width="1.09" height="1.09" transform="translate(-20.08 65.9) rotate(-40.36)"/>
                <polygon class="cls-10" points="83.33 62.11 82.62 61.28 81.92 60.45 82.75 59.74 83.45 60.58 84.16 61.41 84.86 62.24 84.03 62.94 83.2 63.64 82.37 64.35 81.67 63.52 82.5 62.81 83.33 62.11"/>
                <rect class="cls-10" x="80.61" y="59.84" width="1.09" height="1.09" transform="translate(-19.8 66.86) rotate(-40.32)"/>
              </g>
            </g>
            <g>
              <rect class="cls-5" x="77.99" y="52.53" width="1.09" height="1.09" transform="translate(-8.51 15.55) rotate(-10.73)"/>
              <rect class="cls-5" x="79.26" y="53.4" width="1.09" height="1.09" transform="translate(-8.64 15.79) rotate(-10.72)"/>
              <rect class="cls-5" x="80.54" y="54.27" width="1.09" height="1.09" transform="translate(-8.79 16.05) rotate(-10.73)"/>
              <rect class="cls-5" x="81.81" y="55.13" width="1.09" height="1.09" transform="translate(-8.93 16.32) rotate(-10.74)"/>
              <rect class="cls-5" x="83.08" y="56" width="1.09" height="1.09" transform="translate(-9.03 16.47) rotate(-10.67)"/>
              <polygon class="cls-4" points="78.77 51.37 79.84 51.17 80.04 52.24 81.11 52.03 81.31 53.1 82.38 52.9 82.59 53.97 83.65 53.77 83.86 54.84 84.93 54.64 85.13 55.71 85.33 56.78 84.26 56.98 84.06 55.91 82.99 56.11 82.79 55.04 81.72 55.24 81.51 54.17 80.44 54.38 80.24 53.31 79.17 53.51 78.97 52.44 77.9 52.64 77.7 51.57 78.77 51.37"/>
              <g>
                <polygon class="cls-10" points="77.5 50.5 78.57 50.3 79.64 50.1 79.84 51.17 78.77 51.37 77.7 51.57 77.9 52.64 78.1 53.71 77.03 53.91 76.83 52.84 76.63 51.77 76.43 50.7 77.5 50.5"/>
                <rect class="cls-10" x="78.19" y="53.6" width="1.09" height="1.09" transform="translate(-8.69 15.57) rotate(-10.7)"/>
                <rect class="cls-10" x="79.47" y="54.47" width="1.09" height="1.09" transform="translate(-8.82 15.8) rotate(-10.69)"/>
                <rect class="cls-10" x="80.74" y="55.34" width="1.09" height="1.09" transform="translate(-8.96 16.07) rotate(-10.7)"/>
                <rect class="cls-10" x="79.93" y="51.06" width="1.09" height="1.09" transform="translate(-8.2 15.88) rotate(-10.73)"/>
                <rect class="cls-10" x="82.01" y="56.2" width="1.09" height="1.09" transform="translate(-9.09 16.29) rotate(-10.69)"/>
                <rect class="cls-10" x="81.2" y="51.92" width="1.09" height="1.09" transform="translate(-8.3 16.04) rotate(-10.67)"/>
                <rect class="cls-10" x="82.47" y="52.79" width="1.09" height="1.09" transform="translate(-8.48 16.38) rotate(-10.73)"/>
                <polygon class="cls-10" points="85.33 56.78 85.13 55.71 84.93 54.64 86 54.44 86.2 55.51 86.4 56.58 86.6 57.65 85.53 57.85 84.46 58.05 83.39 58.25 83.19 57.18 84.26 56.98 85.33 56.78"/>
                <rect class="cls-10" x="83.75" y="53.66" width="1.09" height="1.09" transform="translate(-8.6 16.59) rotate(-10.7)"/>
              </g>
            </g>
          </g>
        </g>
      </g>
    </g>
    <image width="360" height="660" transform="translate(79.22 108.68) rotate(17.27) scale(.05)" xlink:href="../../SEIZEE/react-seizee/src/imgs/food/apple.png"/>
    <image width="540" height="480" transform="translate(280.88 20.24) rotate(-19.05) scale(.08)" xlink:href="../../SEIZEE/react-seizee/src/imgs/food/banana.png"/>
    <image width="420" height="420" transform="translate(16.94 5.54) scale(.07)" xlink:href="../../SEIZEE/react-seizee/src/imgs/food/cake.png"/>
    <image width="420" height="600" transform="translate(256.75 95.4) rotate(31.41) scale(.07)" xlink:href="../../SEIZEE/react-seizee/src/imgs/food/corn.png"/>
    <image width="600" height="600" transform="translate(13.7 55.62) scale(.05)" xlink:href="../../SEIZEE/react-seizee/src/imgs/food/donut.png"/>
    <image width="600" height="480" transform="translate(7.1 106.39) rotate(-15.99) scale(.08)" xlink:href="../../SEIZEE/react-seizee/src/imgs/food/hamburger.png"/>
    <image width="480" height="480" transform="translate(95.51 4.29) rotate(20.59) scale(.06)" xlink:href="../../SEIZEE/react-seizee/src/imgs/food/pizza.png"/>
    <image width="540" height="660" transform="translate(233.82 3.29) rotate(19.91) scale(.05)" xlink:href="../../SEIZEE/react-seizee/src/imgs/food/strawberry.png"/>
    <image width="480" height="480" transform="translate(309.88 69.88) rotate(24.33) scale(.06)" xlink:href="../../SEIZEE/react-seizee/src/imgs/food/toast.png"/>
  </g>
  <g id="__3" data-name=" 3">
    <g>
      <g>
        <path class="cls-2" d="M153.43,46.96c-1.08,0-1.99,0-2.89,0q-1.89,0-1.89-1.94c0-.9,0-1.81,0-2.81h-4.38V23.17h4.28v-4.83h4.71v-4.42h14.37v4.32h4.73v4.66h4.75c0-1.24,.04-2.44-.01-3.64-.03-.74,.18-1.02,.96-.99,1.2,.06,2.41,.02,3.78,.02v-4.4h14.29v4.32h4.75v4.73h4.88v19.14h-4.73v4.72h-4.83c0,1.4-.03,2.67,.01,3.94,.03,.72-.23,.94-.93,.91-1.21-.05-2.42-.01-3.76-.01v4.78h-4.83v4.71h-4.77v5.01h-14.23v-4.88h-4.73v-4.71h-4.76v-4.8h-4.75v-4.76Zm26.3-21.41h-10.02v-4.7h-4.78v-4.28h-9.03v4.41h-4.66c0,1.36-.04,2.61,.02,3.84,.04,.78-.25,.99-.99,.95-1.13-.05-2.26-.01-3.39-.01v13.77h4.43v4.75h4.75v4.82h4.79v4.76h4.74v4.76h4.75v4.87h8.89c0-1.35,.04-2.66-.01-3.95-.03-.78,.18-1.09,1.01-1.04,1.23,.07,2.47,.02,3.82,.02,0-1.33,.05-2.54-.02-3.74-.04-.81,.25-1.05,1.04-1.02,1.23,.06,2.46,.01,3.79,.01v-4.78h4.69c0-1.29,.05-2.46-.02-3.62-.05-.9,.19-1.27,1.16-1.2,1.19,.08,2.39,.02,3.67,.02v-4.74h4.76v-13.85h-4.88v-4.73h-4.75v-4.31h-9.01v4.43h-4.73v4.57Z"/>
        <path class="cls-3" d="M198.24,25.59v-4.73h-4.75v-4.31h-9.01v4.43h-4.73v4.57h-10.02v-4.7h-4.78v-4.28h-9.03v4.41h-4.66c0,1.36-.04,2.61,.02,3.84,.04,.78-.25,.99-.99,.95-1.13-.05-2.26-.01-3.39-.01v13.77h4.38v.48h.05v4.27h4.75v4.82h4.79v4.76h4.74v4.76h4.75v4.87h8.89c0-1.35,.04-2.66-.01-3.95-.03-.78,.18-1.09,1.01-1.04,1.23,.07,2.47,.02,3.82,.02,0-1.33,.05-2.54-.02-3.74-.04-.81,.25-1.05,1.04-1.02,1.23,.06,2.46,.01,3.79,.01v-4.78h4.69c0-1.29,.05-2.46-.02-3.62-.05-.9,.19-1.27,1.16-1.2,1.19,.08,2.39,.02,3.67,.02v-4.74h4.76v-13.85h-4.88Z"/>
      </g>
      <g>
        <polygon class="cls-2" points="178.26 39.88 178.26 43.38 174.76 43.38 171.26 43.38 171.26 39.88 167.76 39.88 164.26 39.88 164.26 43.38 164.26 46.89 167.76 46.89 167.76 50.39 171.26 50.39 171.26 53.89 174.76 53.89 178.26 53.89 178.26 50.39 181.75 50.39 181.75 46.89 185.25 46.89 185.25 43.38 185.25 39.88 181.75 39.88 178.26 39.88"/>
        <polygon class="cls-2" points="178.26 32.88 178.26 36.38 181.75 36.38 181.75 32.88 181.75 29.37 178.26 29.37 178.26 32.88"/>
        <polygon class="cls-2" points="167.76 36.38 171.26 36.38 171.26 32.88 171.26 29.37 167.76 29.37 167.76 32.88 167.76 36.38"/>
      </g>
    </g>
  </g>
</svg>