<svg width="122" height="231" viewBox="0 0 122 231" fill="none" xmlns="http://www.w3.org/2000/svg">
<ellipse cx="66.3256" cy="135.405" rx="41.5766" ry="53.6119" fill="white"/>
<path d="M109.007 86.9323H96.9716V73.8364H24.7484V86.9323H12.7131V100.004H0.677734V165.397H12.7131V191.564H24.7484V204.636H36.7837V217.707H48.8077V230.803H72.8897V217.707H84.925V204.636H96.9603V191.564H108.996V165.397H121.031V100.004H108.996V86.9323H109.007ZM78.9187 105.03V91.9588H90.9426V118.114H78.9187V105.042V105.03ZM42.8014 105.03V91.9588H54.8367V118.114H42.8014V105.042V105.03ZM102.989 144.269V157.34H90.954V170.411H78.93V183.507H54.848V170.411H42.8127V157.34H30.7774V131.185H54.8594V144.256H78.9414V131.185H103.012V144.256L102.989 144.269Z" fill="#FAD249"/>
<path d="M25.2316 53.4014H37.1057V66.5353H48.9687H60.8428H72.7282H84.6024V53.4014H96.4765V40.2674H108.362V27.1211H96.4765H84.6024V40.2674H72.7282V27.1211H84.6024V13.9748H72.7282V0.82843H60.8428H48.9687V13.9748H37.1057V27.1211H48.9687V40.2674H37.1057V27.1211H25.2316H13.3462V40.2674H25.2316V53.4014Z" fill="#87BF25"/>
</svg>
