<svg width="612" height="129" viewBox="0 0 612 129" fill="none" xmlns="http://www.w3.org/2000/svg">
<path d="M27.1074 125.388L6.27128 127.021L0.137003 48.7205L46.4152 45.095L47.7469 62.0929L22.3048 64.0861L23.4733 79.0004L46.9414 77.1618L48.273 94.1597L24.8049 95.9983L27.1074 125.388ZM117.368 118.317L70.8702 121.96L64.7359 43.6597L111.233 40.0169L112.565 57.0148L87.2328 58.9994L88.195 71.2818L111.663 69.4432L112.995 86.4411L89.5267 88.2797L90.6865 103.084L116.019 101.1L117.368 118.317ZM184.573 113.052L179.583 98.6576L154.141 100.651L151.345 115.655L128.096 117.476L147.488 36.8456L175.671 34.6376L207.712 111.239L184.573 113.052ZM169.435 69.11C168.96 67.7496 168.294 65.8157 167.435 63.3085C166.571 60.7281 165.701 58.0746 164.826 55.348C163.95 52.6214 163.261 50.3951 162.758 48.6691C162.603 50.4466 162.299 52.6771 161.848 55.3606C161.469 58.0384 161.051 60.6824 160.593 63.2928C160.209 65.8975 159.866 68.0943 159.565 69.8833L157.17 82.9803L173.839 81.6744L169.435 69.11ZM270.943 82.3423C271.275 86.5826 270.493 90.6896 268.598 94.6631C266.775 98.6309 263.692 101.999 259.349 104.766C255.072 107.455 249.352 109.08 242.187 109.642C238.605 109.922 235.447 109.986 232.713 109.832C230.058 109.746 227.532 109.429 225.136 108.881C222.739 108.333 220.252 107.572 217.674 106.597L216.197 87.7346C220.603 89.5226 225.009 90.8325 229.414 91.6643C233.813 92.423 237.768 92.6649 241.277 92.39C243.397 92.2239 245.095 91.8334 246.371 91.2186C247.647 90.6037 248.579 89.8318 249.169 88.903C249.758 87.9741 250.009 86.9614 249.924 85.8647C249.815 84.4756 249.248 83.3431 248.223 82.4672C247.198 81.5912 245.622 80.7216 243.495 79.8585C241.368 78.9953 238.526 77.9307 234.969 76.6646C231.942 75.5777 229.201 74.3949 226.747 73.116C224.293 71.837 222.154 70.3496 220.329 68.6536C218.577 66.9519 217.168 64.9291 216.102 62.5852C215.03 60.1682 214.362 57.2782 214.099 53.9152C213.704 48.8706 214.617 44.5695 216.839 41.0117C219.056 37.3808 222.291 34.5528 226.546 32.5276C230.869 30.4236 235.954 29.1425 241.803 28.6843C246.92 28.2834 251.572 28.5074 255.758 29.3564C259.938 30.1323 263.694 31.1253 267.025 32.3355L261.835 49.1823C258.352 47.9105 254.931 46.9648 251.572 46.3452C248.281 45.6468 245.246 45.4065 242.468 45.6241C240.64 45.7673 239.159 46.104 238.023 46.6343C236.888 47.1646 236.059 47.8548 235.537 48.7048C235.083 49.476 234.893 50.3368 234.967 51.2872C235.065 52.5301 235.626 53.5895 236.651 54.4655C237.675 55.3414 239.33 56.2784 241.615 57.2763C243.968 58.1954 247.15 59.3805 251.162 60.8315C255.096 62.2152 258.458 63.8275 261.251 65.6683C264.11 67.4304 266.344 69.646 267.95 72.3154C269.624 74.9059 270.622 78.2482 270.943 82.3423ZM324.914 102.057L303.749 103.715L298.972 42.7421L279.89 44.2371L278.533 26.9101L337.861 22.2622L339.218 39.5891L320.137 41.084L324.914 102.057ZM374.819 70.3425L357.163 71.7257L350.453 21.2757L373.592 19.4629L374.819 70.3425ZM356.11 90.6758C355.812 86.8741 356.7 84.1197 358.773 82.4126C360.919 80.6998 363.527 79.7231 366.598 79.4825C369.596 79.2477 372.251 79.812 374.565 81.1755C376.878 82.5389 378.184 85.1215 378.482 88.9232C378.762 92.5055 377.869 95.1868 375.802 96.9671C373.735 98.7473 371.202 99.7548 368.205 99.9897C365.134 100.23 362.403 99.6351 360.01 98.2042C357.691 96.7677 356.391 94.2582 356.11 90.6758ZM459.463 12.7355L439.936 93.046L415.042 94.9962L383.356 18.698L407.153 16.8336L420.901 55.6986C421.381 57.1322 421.968 58.9986 422.663 61.298C423.358 63.5974 424.017 65.8997 424.639 68.2048C425.334 70.5043 425.775 72.3822 425.963 73.8386C425.995 72.365 426.104 70.4807 426.292 68.1856C426.548 65.8118 426.806 63.4745 427.067 61.1737C427.396 58.7941 427.722 56.856 428.046 55.3595L435.775 14.5913L459.463 12.7355ZM523.203 86.5225L518.214 72.1283L492.772 74.1215L489.975 89.1257L466.726 90.9471L486.118 10.3163L514.302 8.10826L546.342 84.7098L523.203 86.5225ZM508.065 42.5807C507.591 41.2202 506.924 39.2864 506.066 36.7791C505.202 34.1987 504.332 31.5452 503.456 28.8186C502.58 26.092 501.891 23.8657 501.388 22.1397C501.233 23.9172 500.93 26.1478 500.478 28.8312C500.099 31.509 499.681 34.1531 499.224 36.7634C498.839 39.3681 498.496 41.5649 498.195 43.3539L495.801 56.4509L512.47 55.145L508.065 42.5807ZM560.224 83.6222L554.09 5.32212L575.255 3.66398L580.049 64.8565L610.207 62.4938L611.547 79.6014L560.224 83.6222Z" fill="white"/>
</svg>
