<?xml version="1.0" encoding="UTF-8" standalone="no"?>
<!-- Generator: Adobe Illustrator 24.1.2, SVG Export Plug-In . SVG Version: 6.00 Build 0)  -->

<svg
   version="1.1"
   id="Layer_1"
   x="0px"
   y="0px"
   viewBox="0 0 105.05246 124.36811"
   enable-background="new 0 0 128 128"
   xml:space="preserve"
   sodipodi:docname="3e7525122b687abbf7c3d768e128d1a2.svg"
   width="32"
   height="32"
   xmlns:inkscape="http://www.inkscape.org/namespaces/inkscape"
   xmlns:sodipodi="http://sodipodi.sourceforge.net/DTD/sodipodi-0.dtd"
   xmlns="http://www.w3.org/2000/svg"
   xmlns:svg="http://www.w3.org/2000/svg"><defs
   id="defs11" /><sodipodi:namedview
   id="namedview9"
   pagecolor="#ffffff"
   bordercolor="#666666"
   borderopacity="1.0"
   inkscape:pageshadow="2"
   inkscape:pageopacity="0.0"
   inkscape:pagecheckerboard="0" />
<g
   id="g6"
   transform="translate(-11.763012,-1.9318874)">
	<path
   fill="#040807"
   d="M 41.6,64.1 C 42.2,62.9 42,62 42,61.2 42,46 42,30.8 42,15.6 42,12.5 42.5,9.6 44.5,7 47.7,2.8 53,1 57.9,2.4 63.2,4 66.8,8.5 67,14.1 c 0.1,3.8 0,7.7 0.1,11.5 0,0.8 0,1.6 0,2.4 0.8,0.3 1.5,0 2.2,-0.1 5,-0.6 9,1.1 11.9,5.1 0.8,1 1.3,1.4 2.7,1 6,-1.8 11.4,0.3 14.6,5.7 0.8,1.3 1.4,1.4 2.8,1 7.6,-2 15.3,3.7 15.4,11.5 0.2,10.5 0.1,21 0,31.4 -0.1,5 -1.4,10 -2.6,14.9 -1.9,8 -4.2,15.9 -6.7,23.8 -1,3.1 -2.1,4 -5.4,4 -17.2,0 -34.4,0 -51.6,0 -2.6,0 -4.2,-1 -5.3,-3.3 -1.3,-3 -2.9,-5.9 -4.3,-8.8 C 37.1,106.6 32.3,99.7 27.8,92.7 23.1,85.4 18.3,78.1 14.1,70.5 12.8,68.2 12,65.7 11.8,63 11.2,55.3 18,49.9 24.9,50.5 c 3.6,0.3 6.5,2 8.9,4.7 2,2.3 4,4.6 6,6.9 0.4,0.6 1,1.2 1.8,2 z"
   id="path2" />
	<desc>cursor-land.com</desc><path
   fill="#00a59b"
   d="m 47.4,44.6 c 0,-9.8 0,-19.5 0,-29.3 0,-1.8 0.4,-3.5 1.5,-5 1.7,-2.3 4.6,-3.3 7.4,-2.6 2.9,0.8 4.9,3.2 5.1,6.2 0.1,0.8 0,1.6 0,2.4 0,11.9 0,23.8 0,35.7 0,0.7 0,1.4 0.1,2.2 0.1,0.6 0.4,1.1 1.1,1.1 0.8,0 1.2,-0.5 1.4,-1.1 0.1,-0.6 0.1,-1.3 0.1,-1.9 0,-4.1 -0.1,-8.2 0,-12.2 0.1,-2.9 1.5,-5 4.2,-6.2 2.7,-1.2 5.2,-0.7 7.4,1.2 1.8,1.6 2.4,3.7 2.4,6 0,5.6 0,11.2 0,16.8 0,0.6 0,1.3 0.1,1.9 0.1,0.7 0.5,1 1.2,1 0.6,0 1.1,-0.3 1.2,-1 0.1,-0.6 0.1,-1.1 0.1,-1.7 0,-4 0,-8 0,-12 0,-3.5 2,-6.2 5.1,-7.1 4.1,-1.2 8.3,1.5 8.9,5.7 0.1,0.9 0.1,1.8 0.1,2.6 0,5.4 0,10.9 0,16.3 0,2 0.4,2.8 1.3,2.6 1.4,-0.3 1.2,-1.5 1.2,-2.5 0,-3.5 0,-7 0,-10.6 0,-1.5 0.2,-3 1.1,-4.3 1.8,-2.6 4.6,-3.7 7.5,-3 2.8,0.7 5,3.1 5.3,6.1 0.1,0.4 0,0.8 0,1.2 0,9.7 0,19.4 0,29 0,3.4 -0.8,6.8 -1.5,10.2 -1.9,8.7 -4.4,17.4 -7,25.9 -0.7,2.3 -0.7,2.3 -3.1,2.3 -15.7,0 -31.3,0 -47,0 -1.7,0 -2.7,-0.5 -3.5,-2.1 C 44.3,107.5 37.9,97.6 31.3,87.7 27.5,81.9 23.8,76 20.3,70 c -1,-1.7 -2,-3.5 -2.6,-5.4 -1.1,-3.3 -0.3,-6.2 2.3,-7.9 2.8,-1.9 6.4,-1.7 8.8,0.9 3.3,3.5 6.4,7.2 9.5,10.8 1.9,2.2 3.9,4.5 5.8,6.7 0.4,0.4 0.7,0.8 1.2,1.2 1.1,0.9 2,0.5 2.1,-0.9 0.1,-0.6 0,-1.3 0,-1.9 0,-9.4 0,-19.2 0,-28.9 z"
   id="path4" />
</g>
</svg>
