<?xml version="1.0" encoding="UTF-8" standalone="no"?>
<!-- Generator: Adobe Illustrator 24.1.2, SVG Export Plug-In . SVG Version: 6.00 Build 0)  -->

<svg
   version="1.1"
   id="Layer_1"
   x="0px"
   y="0px"
   viewBox="0 0 79.503479 124.29048"
   enable-background="new 0 0 128 128"
   xml:space="preserve"
   sodipodi:docname="fccedd98575e23d6a005478284674688.svg"
   width="32"
   height="32"
   xmlns:inkscape="http://www.inkscape.org/namespaces/inkscape"
   xmlns:sodipodi="http://sodipodi.sourceforge.net/DTD/sodipodi-0.dtd"
   xmlns="http://www.w3.org/2000/svg"
   xmlns:svg="http://www.w3.org/2000/svg"><defs
   id="defs11" /><sodipodi:namedview
   id="namedview9"
   pagecolor="#ffffff"
   bordercolor="#666666"
   borderopacity="1.0"
   inkscape:pageshadow="2"
   inkscape:pageopacity="0.0"
   inkscape:pagecheckerboard="0" />
<g
   id="g6"
   transform="translate(-23.755556,-2.0601054)">
	<path
   fill="#040404"
   d="m 48.3,93.9 c -3.7,2.8 -7.3,5.4 -10.9,8.1 -2.8,2.1 -5.6,4.2 -8.5,6.3 -0.4,0.3 -0.8,0.6 -1.2,0.8 -1.8,0.7 -3.6,-0.4 -3.9,-2.3 -0.1,-0.6 0,-1.3 0,-1.9 0,-32.8 0,-65.6 0,-98.3 0,-0.6 0,-1.3 0,-1.9 0.3,-2.4 2.7,-3.4 4.6,-2 0.6,0.3 1.1,0.8 1.5,1.3 23.8,23.8 47.6,47.5 71.5,71.3 1.2,1.2 2.4,2.3 1.6,4.1 -0.8,1.9 -2.5,1.7 -4.1,1.7 -6.5,0 -13,0 -19.4,0 -0.8,0 -1.6,0 -2.5,0 0.2,1.2 0.7,2 1.1,2.8 4.3,8.6 8.6,17.1 12.9,25.7 0.3,0.6 0.6,1.1 0.8,1.8 0.4,1.6 -0.2,2.7 -1.9,3.6 -5.2,2.6 -10.4,5.2 -15.7,7.8 -1.9,0.9 -3.7,1.9 -5.6,2.8 -2.6,1.3 -3.8,1 -5.1,-1.6 -3.9,-7.6 -7.7,-15.3 -11.5,-22.9 -1.2,-2.3 -2.4,-4.6 -3.7,-7.2 z"
   id="path2" />
	<desc>cursor-land.com</desc><path
   fill="#01a39a"
   d="m 29.7,100.2 c 0,-29.3 0,-58.5 0,-87.6 0.2,-0.1 0.2,-0.1 0.3,-0.1 0.1,0 0.2,0 0.2,0 0.4,0.4 0.8,0.7 1.2,1.1 20.6,20.4 41,40.8 61.4,61.2 0.1,0.1 0,0.3 0.1,0.6 -0.7,0.3 -1.5,0.2 -2.3,0.2 -5.7,0 -11.4,0 -17,0 -0.7,0 -1.5,0 -2.2,0.1 -1.6,0.3 -2.5,1.8 -2,3.4 0.2,0.6 0.5,1.2 0.8,1.8 4.6,9.1 9.2,18.3 13.8,27.4 0.2,0.4 0.4,0.9 0.6,1.3 0.6,1 0.4,1.5 -0.6,2.1 -5,2.5 -10,5 -15,7.5 -0.9,0.5 -1.4,0.3 -1.9,-0.6 -1.5,-3.1 -3.1,-6.1 -4.6,-9.2 -3.3,-6.5 -6.5,-13 -9.8,-19.5 -0.3,-0.5 -0.5,-1 -0.8,-1.5 -1,-1.5 -2.4,-1.9 -3.9,-0.9 -1.4,0.9 -2.7,1.9 -4.1,2.9 -4.1,3.1 -8.2,6.1 -12.3,9.2 -0.5,0.1 -0.9,0.5 -1.9,0.6 z"
   id="path4" />
</g>
</svg>
