<svg width="153" height="41" viewBox="0 0 153 41" fill="none" xmlns="http://www.w3.org/2000/svg">
<path d="M67.3011 18.9274V17.0137H65.4316V18.9274V20.8412H67.3011V18.9274Z" fill="white"/>
<path d="M15.7872 16.3377L14.4644 14.9843L13.1416 16.3361L14.4644 17.6896L15.7904 19.043L17.1132 17.6928L18.436 16.341L17.11 14.9859L15.7872 16.3377Z" fill="white"/>
<path d="M65.4313 22.7566V24.6703H63.5618H61.6907V22.7566H59.8197H57.9502V24.6703V26.5841H59.8197V28.4979H61.6907V30.4132H63.5618H65.4313V28.4979H67.3007V26.5841H69.1702V24.6703V22.7566H67.3007H65.4313Z" fill="white"/>
<path d="M61.6904 18.9274V17.0137H59.8193V18.9274V20.8412H61.6904V18.9274Z" fill="white"/>
<path d="M31.3713 20.0839V18.1669H33.2472V16.2499H29.4971V20.0839H31.3713Z" fill="white"/>
<path d="M106.156 20.0839V18.1669H108.032V16.2499H104.28V20.0839H106.156Z" fill="white"/>
<path d="M78.8749 18.1669H80.7507V16.2499H76.999V20.0839H78.8749V18.1669Z" fill="white"/>
<path d="M133.438 20.0839V18.1669H135.313V16.2499H131.562V20.0839H133.438Z" fill="white"/>
<path d="M48.2538 14.3328H29.4969V16.2498H33.247V18.1668H31.3712V20.0838H29.4969V16.2498H27.6211V35.4183H29.4969V37.3353H48.2538V35.4183H50.1296V31.5843H48.2538V29.6672H38.8746V27.7502H48.2538V25.8332H50.1296V23.9162H48.2538V21.9992H38.8746V20.0838H48.2538V18.1668H50.1296V16.2498H48.2538V14.3328Z" fill="#113F75"/>
<path d="M95.7557 14.3328H76.9989V16.2498H80.7506V18.1668H78.8747V20.0838H76.9989V21.9992H84.5023V23.9162H82.6264V25.8332H80.7506V27.7502H78.8747V29.6672H76.9989V31.5843H75.123V35.4183H76.9989V37.3353H95.7557V35.4183H97.6316V29.6672H95.7557V27.7502H90.1282V25.8332H92.0041V23.9162H93.8799V21.9992H95.7557V20.0838H97.6316V16.2498H95.7557V14.3328Z" fill="#113F75"/>
<path d="M76.9989 16.2499H75.123V20.0839H76.9989V16.2499Z" fill="#113F75"/>
<path d="M123.038 14.3328H104.281V16.2498H108.033V18.1668H106.157V20.0838H104.281V16.2498H102.405V35.4183H104.281V37.3353H123.038V35.4183H124.914V31.5843H123.038V29.6672H113.66V27.7502H123.038V25.8332H124.914V23.9162H123.038V21.9992H113.66V20.0838H123.038V18.1668H124.914V16.2498H123.038V14.3328Z" fill="#113F75"/>
<path d="M150.319 20.0838V18.1668H152.195V16.2498H150.319V14.3328H131.562V16.2498H135.312V18.1668H133.438V20.0838H131.562V16.2498H129.687V35.4183H131.562V37.3353H150.319V35.4183H152.195V31.5843H150.319V29.6672H140.94V27.7502H150.319V25.8332H152.195V23.9162H150.319V21.9992H140.94V20.0838H150.319Z" fill="#113F75"/>
<path d="M21.4374 14.3328H4.55638V18.1668H0.804688V23.9178H2.68053V25.8348H15.8114V27.7519H2.68053V29.6689H0.804688V35.4199H2.68053V37.3369H19.5615V35.4199H21.4374V33.5029H23.3132V23.9195H21.4374V22.0024H12.0597V20.0854H21.4374V18.1684H23.3132V16.2514H21.4374V14.3344V14.3328ZM17.1135 17.6928L15.7907 19.0447L14.4647 17.6896L13.1403 16.3361L14.4631 14.9843L15.7875 16.3377L17.1103 14.9859L18.4363 16.341L17.1135 17.6928Z" fill="#113F75"/>
<path d="M57.0166 11.3213H58.886V13.2351H60.7555H62.625H64.496H66.3671V11.3213H68.2366V9.40757H70.1076V7.49381H68.2366H66.3671V9.40757H64.496V7.49381H66.3671V5.57843H64.496V3.66467H62.625H60.7555V5.57843H58.886V7.49381H60.7555V9.40757H58.886V7.49381H57.0166H55.1455V9.40757H57.0166V11.3213Z" fill="#87BF25"/>
<path d="M70.1072 16.2792H68.2362V14.3638H57.0146V16.2792H55.1435V18.1929H53.2725V27.7633H55.1435V31.5925H57.0146V33.5062H58.8856V35.42H60.7535V37.3354H64.4941V35.42H66.3651V33.5062H68.2362V31.5925H70.1072V27.7633H71.9783V18.1929H70.1072V16.2792ZM65.4312 18.9275V17.0137H67.2991V20.8412H65.4312V18.9275ZM59.8196 18.9275V17.0137H61.6906V20.8412H59.8196V18.9275ZM69.1701 24.6704V26.5841H67.2991V28.4979H65.4312V30.4133H61.6906V28.4979H59.8196V26.5841H57.9485V22.7566H61.6891V24.6704H65.4296V22.7566H69.1685V24.6704H69.1701Z" fill="#ED4743"/>
</svg>
