<svg width="193" height="72" viewBox="0 0 193 72" fill="none" xmlns="http://www.w3.org/2000/svg">
<g filter="url(#filter0_d_1319_12236)">
<rect x="2" y="2" width="183" height="62" rx="10" fill="white" shape-rendering="crispEdges"/>
<g filter="url(#filter1_d_1319_12236)">
<path d="M31.426 45L26.266 28.2H26.146C26.166 28.6 26.196 29.2 26.236 30C26.276 30.8 26.316 31.66 26.356 32.58C26.396 33.48 26.416 34.3 26.416 35.04V45H22.366V23.58H28.546L33.616 39.96H33.706L39.076 23.58H45.256V45H41.026V34.86C41.026 34.18 41.036 33.4 41.056 32.52C41.096 31.64 41.126 30.81 41.146 30.03C41.186 29.23 41.216 28.63 41.236 28.23H41.116L35.596 45H31.426ZM67.4968 45H55.1668V23.58H67.4968V27.3H59.6968V32.01H66.9568V35.73H59.6968V41.25H67.4968V45ZM95.4439 45H89.6839L80.3539 28.8H80.2339C80.2539 29.3 80.2739 29.81 80.2939 30.33C80.3139 30.83 80.3339 31.34 80.3539 31.86C80.3939 32.36 80.4239 32.87 80.4439 33.39C80.4639 33.89 80.4839 34.4 80.5039 34.92V45H76.4539V23.58H82.1839L91.4839 39.63H91.5739C91.5539 39.13 91.5339 38.64 91.5139 38.16C91.4939 37.66 91.4739 37.17 91.4539 36.69C91.4539 36.19 91.4439 35.7 91.4239 35.22C91.4039 34.72 91.3839 34.22 91.3639 33.72V23.58H95.4439V45ZM122.788 37.44C122.788 38.92 122.458 40.26 121.798 41.46C121.158 42.64 120.178 43.58 118.858 44.28C117.558 44.96 115.908 45.3 113.908 45.3C111.068 45.3 108.908 44.58 107.428 43.14C105.948 41.68 105.208 39.76 105.208 37.38V23.58H109.738V36.69C109.738 38.45 110.098 39.69 110.818 40.41C111.538 41.13 112.608 41.49 114.028 41.49C115.028 41.49 115.838 41.32 116.458 40.98C117.078 40.64 117.528 40.11 117.808 39.39C118.108 38.67 118.258 37.76 118.258 36.66V23.58H122.788V37.44Z" fill="#2B325C"/>
</g>
<line x1="138" y1="21.5" x2="165" y2="21.5" stroke="#FAD249" stroke-width="5" stroke-linecap="round"/>
<line x1="138" y1="33.5" x2="165" y2="33.5" stroke="#FAD249" stroke-width="5" stroke-linecap="round"/>
<line x1="138" y1="45.5" x2="165" y2="45.5" stroke="#FAD249" stroke-width="5" stroke-linecap="round"/>
<rect x="2" y="2" width="183" height="62" rx="10" stroke="#2B325C" stroke-width="3" stroke-linecap="square" shape-rendering="crispEdges"/>
</g>
<defs>
<filter id="filter0_d_1319_12236" x="0.5" y="0.5" width="192" height="71" filterUnits="userSpaceOnUse" color-interpolation-filters="sRGB">
<feFlood flood-opacity="0" result="BackgroundImageFix"/>
<feColorMatrix in="SourceAlpha" type="matrix" values="0 0 0 0 0 0 0 0 0 0 0 0 0 0 0 0 0 0 127 0" result="hardAlpha"/>
<feOffset dx="6" dy="6"/>
<feComposite in2="hardAlpha" operator="out"/>
<feColorMatrix type="matrix" values="0 0 0 0 0.168627 0 0 0 0 0.196078 0 0 0 0 0.360784 0 0 0 1 0"/>
<feBlend mode="normal" in2="BackgroundImageFix" result="effect1_dropShadow_1319_12236"/>
<feBlend mode="normal" in="SourceGraphic" in2="effect1_dropShadow_1319_12236" result="shape"/>
</filter>
<filter id="filter1_d_1319_12236" x="22.3662" y="23.58" width="102.422" height="23.72" filterUnits="userSpaceOnUse" color-interpolation-filters="sRGB">
<feFlood flood-opacity="0" result="BackgroundImageFix"/>
<feColorMatrix in="SourceAlpha" type="matrix" values="0 0 0 0 0 0 0 0 0 0 0 0 0 0 0 0 0 0 127 0" result="hardAlpha"/>
<feOffset dx="2" dy="2"/>
<feComposite in2="hardAlpha" operator="out"/>
<feColorMatrix type="matrix" values="0 0 0 0 0.895833 0 0 0 0 0.895833 0 0 0 0 0.895833 0 0 0 1 0"/>
<feBlend mode="normal" in2="BackgroundImageFix" result="effect1_dropShadow_1319_12236"/>
<feBlend mode="normal" in="SourceGraphic" in2="effect1_dropShadow_1319_12236" result="shape"/>
</filter>
</defs>
</svg>
