<?xml version="1.0" encoding="UTF-8" standalone="no"?>
<!-- Generator: Adobe Illustrator 24.1.2, SVG Export Plug-In . SVG Version: 6.00 Build 0)  -->

<svg
   version="1.1"
   id="Layer_1"
   x="0px"
   y="0px"
   viewBox="0 0 118.94982 122.88465"
   enable-background="new 0 0 128 128"
   xml:space="preserve"
   sodipodi:docname="ccbd26c74fd1d598b641dbebaf65b5e6.svg"
   width="32"
   height="32"
   xmlns:inkscape="http://www.inkscape.org/namespaces/inkscape"
   xmlns:sodipodi="http://sodipodi.sourceforge.net/DTD/sodipodi-0.dtd"
   xmlns="http://www.w3.org/2000/svg"
   xmlns:svg="http://www.w3.org/2000/svg"><defs
   id="defs39" /><sodipodi:namedview
   id="namedview37"
   pagecolor="#ffffff"
   bordercolor="#666666"
   borderopacity="1.0"
   inkscape:pageshadow="2"
   inkscape:pageopacity="0.0"
   inkscape:pagecheckerboard="0" />
<g
   id="g34"
   transform="translate(-4.6501765,-2.7597901)">
	<path
   fill="#080504"
   d="m 37.1,43.2 c 0,-8.4 0,-16.8 0,-25.2 0,-2.3 0.3,-4.6 1.4,-6.7 2.6,-5.2 6.8,-8.2 12.6,-8.5 5.8,-0.4 10.4,2.2 13.6,7.1 1.5,2.4 2.2,5.1 2.2,7.9 0,5.1 0,10.2 0,15.3 0,5.3 0,10.5 0,15.8 0,0.5 0,0.9 0,1.4 0,0.3 0.2,0.5 0.6,0.5 0.5,0 0.9,0 1.4,0 4.7,0 9.5,0 14.2,0 3.3,0 6.5,0.2 9.6,1 10.4,2.6 18.3,8.5 23.8,17.7 1,1.7 0.7,1.5 2.7,1.5 0.7,0 1.4,0 2.1,0 1.5,0.1 2.2,0.8 2.3,2.3 0,2.3 0,4.6 0,6.9 0,1.3 -0.3,1.7 -1.6,2.1 -0.7,0.2 -0.7,0.2 -0.6,1.1 0.5,4.2 0.4,8.3 -0.5,12.4 -1.8,8.3 -5.8,15.2 -12.2,20.7 -6.9,6 -15,9.1 -24.1,9.1 -9.7,0.1 -19.3,0 -29,0 -0.9,0 -1.9,0 -2.8,0 -4,0 -7.4,-1.4 -10.2,-4.1 -2.5,-2.4 -5,-4.8 -7.5,-7.2 -8.3,-8 -16.6,-16 -24.9,-24 C 9.4,89.5 8.5,88.7 7.8,87.8 1.9,80.3 4.6,69.2 13.3,65.3 c 4.2,-1.9 11.1,-2.3 16.4,2.8 1.1,1.1 2.3,2.2 3.4,3.2 0.3,0.3 0.6,0.5 1,0.1 0.5,-0.5 1.2,-0.6 1.9,-0.6 1,0 1,-0.1 1,-1.1 0,-0.4 0,-0.8 0,-1.2 0.1,-8.3 0.1,-16.8 0.1,-25.3 z"
   id="path2" />
	<path
   fill="#fd5517"
   d="m 69.1,122.9 c -5.4,0 -10.8,0 -16.1,0 -3.5,0 -6.4,-1.2 -8.9,-3.6 C 36.6,112.1 29.1,104.8 21.6,97.6 18.1,94.2 14.5,90.8 11,87.4 4.9,81.3 7,70.6 15.5,67.8 c 4.5,-1.5 8.6,-0.6 12.1,2.5 1.8,1.6 3.4,3.3 5.1,4.9 0.5,0.5 0.7,1 0.7,1.7 0,0.9 0,1.9 0,2.8 0,0.4 0,0.8 0.1,1.2 0.2,0.9 0.7,1.4 1.6,1.5 0.6,0.1 1.3,-0.3 1.8,0.2 0.4,0.4 0.1,1.1 0.2,1.7 0.1,1.1 0.7,1.6 1.8,1.8 0.6,0.1 1.3,-0.2 1.8,0.3 0.4,0.5 0.1,1.1 0.2,1.7 0.2,1 0.7,1.6 1.7,1.7 0.5,0.1 1,0 1.6,0.1 0.3,0 0.4,0.2 0.4,0.5 0,0.5 0,0.9 0.1,1.4 0.1,1.2 0.7,1.8 1.9,1.9 0.3,0 0.6,0 0.9,0 5.7,0 11.3,0 17,0 2.2,0 2.6,-0.4 2.8,-2.6 0,-0.2 0,-0.5 0.1,-0.7 0,-0.2 0.2,-0.4 0.5,-0.4 0.5,0 0.9,0 1.4,-0.1 1.1,-0.1 1.6,-0.7 1.9,-1.7 0.1,-0.6 -0.3,-1.4 0.4,-1.8 0.5,-0.3 1.1,-0.2 1.7,-0.3 1.1,-0.2 1.6,-0.8 1.7,-1.9 0,-0.5 0,-0.9 0,-1.4 0,-2 0,-3.9 0,-5.9 0,-0.4 0,-0.8 0,-1.2 0,-0.5 0.2,-0.7 0.7,-0.8 0.3,0 0.6,0 0.9,0 1.4,0 2.8,0 4.2,0 1.7,0 1.7,0 1.7,1.6 0,2.3 0.1,4.5 0,6.8 -0.1,2.1 0.8,2.9 2.7,2.9 0.2,0 0.3,0 0.5,0 0.3,0.1 0.5,0.3 0.5,0.6 0,0.4 0,0.8 0,1.2 0.1,1.1 0.7,1.7 1.8,1.8 0.6,0.1 1.3,-0.3 1.8,0.3 0.4,0.5 0.1,1.1 0.2,1.7 0.1,1 0.7,1.7 1.8,1.8 0.3,0 0.7,0 1,0 5.6,0 11.2,0 16.8,0 0.3,0 0.6,0 0.9,0 1.1,-0.1 1.8,-0.7 2,-1.8 0.1,-0.6 -0.3,-1.4 0.3,-1.8 0.5,-0.4 1.1,-0.1 1.7,-0.2 1,-0.2 1.5,-0.7 1.6,-1.7 0,-0.1 0,-0.2 0,-0.3 0.1,-0.5 -0.2,-1.1 0.4,-1.4 0.6,-0.3 1.2,-0.2 1.9,-0.1 0.2,0 0.4,0.2 0.4,0.5 0,0.5 0.1,0.9 0.1,1.4 0.1,3.9 -0.6,7.6 -1.8,11.2 -1.6,4.8 -4.1,9 -7.6,12.7 -4.8,5 -10.4,8.4 -17.2,9.9 -2.4,0.6 -4.8,1 -7.2,0.9 -5.4,0 -10.7,0 -16,0 0,0 0,0 0,0 z"
   id="path4" />
	<path
   fill="#fd5517"
   d="m 77,71.1 c -10.5,0 -21.1,0 -31.6,0 -1.4,0 -2.9,0 -4.3,-0.1 -1,0 -1.1,-0.1 -1.1,-1.1 0,-0.5 0,-0.9 0,-1.4 0,-16.2 0,-32.4 0,-48.6 0,-0.9 0.1,-1.9 0.1,-2.8 0,-5.1 3.7,-10.4 9.8,-11.4 7.4,-1.2 13,3.8 13.9,10.1 0.1,0.7 0.1,1.4 0.1,2.1 0,11.2 0,22.3 0,33.5 0,2.4 -0.2,2.2 2.1,2.2 5.7,0 11.5,0 17.2,0 3.2,0 6.3,0.3 9.4,1.1 7.1,1.9 13.1,5.6 17.9,11.3 1.2,1.4 2.2,2.8 3.1,4.4 0.2,0.4 0,0.7 -0.4,0.7 -0.5,0 -1,0 -1.6,0 -11.4,0 -23,0 -34.6,0 z"
   id="path6" />
	<desc>cursor-land.com</desc><path
   fill="#c5d1d4"
   d="m 93.7,80.8 c -0.4,-0.3 -0.9,-0.3 -1.3,-0.3 -0.6,0 -1.3,0 -1.9,0 -0.6,0 -0.8,-0.2 -0.8,-0.9 0,-0.7 0,-1.5 0,-2.2 0,-0.5 0.2,-0.7 0.8,-0.7 0.1,0 0.2,0 0.3,0 3.3,0.1 2.8,-0.5 2.8,2.6 0,0.2 0,0.3 0,0.5 0,0.4 0.2,0.7 0.6,0.6 0.6,0 1.3,0 1.9,0 1.2,0 1.2,0 1.2,1.3 0,0.6 0,1.2 0,1.7 0,0.4 0.2,0.6 0.6,0.7 0.9,0 1.7,0 2.6,0.1 0.3,0 0.5,0.2 0.6,0.5 0,0.1 0,0.2 0,0.3 0,3.4 0.5,2.9 -2.9,3 -1,0 -1.1,-0.1 -1.1,-1.1 0,-0.6 0,-1.3 0,-1.9 0,-0.4 -0.1,-0.7 -0.4,-0.9 -0.1,-0.2 -0.1,0.1 -0.1,-0.1 0,-1.9 -1,-3 -2.9,-3.2 z"
   id="path8" />
	<path
   fill="#f5f5f5"
   d="m 45.2,80.4 c -0.2,0 -0.4,0 -0.4,-0.3 0,-1.1 -0.2,-2.1 0.1,-3.2 1,-0.4 2.1,-0.1 3.2,-0.2 h 0.1 v 0.1 c 0.3,0.8 0.1,1.6 0.2,2.4 0,0.2 0,0.5 0,0.7 -1,1.2 -2.1,0.7 -3.2,0.5 z"
   id="path10" />
	<path
   fill="#f5f5f5"
   d="m 52.7,84.3 c 0.9,0 1.8,0 2.7,0 0.3,0 0.4,0.2 0.4,0.4 0,1 0.2,2.1 -0.1,3.1 -0.4,0.3 -0.9,0.2 -1.3,0.1 -0.7,-0.1 -1.9,0.5 -2.1,-0.4 -0.2,-1 -0.6,-2.2 0.4,-3.2 z"
   id="path12" />
	<path
   fill="#f5f5f5"
   d="m 48.6,83.9 c -0.2,-1 -0.2,-2.1 0,-3.1 1.2,-0.3 2.3,-0.2 3.5,0 v 0 c 0.1,0.2 0.1,0.4 0.1,0.7 0.1,3 -0.5,3.4 -3.6,2.4 z"
   id="path14" />
	<path
   fill="#f5f5f5"
   d="m 93.7,80.8 c 0.8,0 1.6,0 2.4,0.1 0.5,0 0.7,0.2 0.7,0.8 0,0.9 0,1.7 0,2.6 -0.9,0.1 -1.9,0.1 -2.8,0 -0.1,-0.1 -0.2,-0.1 -0.3,-0.3 -0.2,-1.1 -0.1,-2.2 0,-3.2 z"
   id="path16" />
	<path
   fill="#c5d1d4"
   d="m 48.6,83.9 c 0.7,0 1.5,0 2.2,0 1,0 1.1,-0.1 1.1,-1.1 0,-0.7 0.1,-1.4 0.1,-2.1 0.2,0.1 0.3,0.3 0.3,0.6 0,0.7 0,1.4 0,2.1 0,0.4 0,0.7 0.4,0.9 -0.2,0.4 -0.3,0.9 -0.3,1.3 0,2.2 -0.2,2.1 2,2.1 0.5,0 0.9,0 1.4,0 -0.1,0.1 -0.1,0.3 -0.2,0.3 -0.3,0 -0.7,0.1 -1,0.1 -2.7,0 -2.5,0.4 -2.5,-2.5 0,-0.2 0,-0.3 0,-0.5 0,-0.6 -0.2,-0.8 -0.9,-0.8 -0.7,0 -1.5,0 -2.2,0 -0.2,0 -0.4,-0.1 -0.4,-0.4 z"
   id="path18" />
	<path
   fill="#c5d1d4"
   d="m 52.1,80.7 c -1.2,0.2 -2.3,0.1 -3.5,0 -0.4,-0.3 -0.9,-0.2 -1.4,-0.3 -0.7,0 -1.3,0.1 -2,-0.1 0.6,0 1.3,-0.1 1.9,-0.1 0.5,0 0.9,0 1.3,-0.2 0.2,0.3 0.5,0.4 0.9,0.4 0.7,0 1.3,0 2,0 0.3,0.1 0.6,0.1 0.8,0.3 z"
   id="path20" />
	<path
   fill="#c5d1d4"
   d="m 48.1,76.8 c -1,0.3 -2.1,0.2 -3.2,0.2 0.1,-0.1 0.1,-0.2 0.2,-0.2 1,-0.1 2,-0.3 3,0 z"
   id="path22" />
	<path
   fill="#c5d1d4"
   d="m 48.4,79.4 c -0.5,-0.8 -0.2,-1.6 -0.2,-2.4 0.1,0.1 0.2,0.1 0.2,0.2 0.1,0.7 0.2,1.4 0,2.2 z"
   id="path24" />
	<path
   fill="#c5d1d4"
   d="m 93.7,83.9 c 0.2,0 0.3,0.1 0.3,0.3 -0.2,0.1 -0.3,0 -0.3,-0.3 z"
   id="path26" />
	<path
   fill="#080504"
   d="m 76.7,98.2 c 3.1,0 6.1,0 9.2,0 0.5,0 0.9,0 1.4,0.1 0.8,0.1 1.3,0.7 1.3,1.6 0,0.9 -0.5,1.6 -1.3,1.7 -0.2,0 -0.5,0 -0.7,0 -1.3,0 -1.3,0.1 -1.3,1.4 0,1 0,2.1 0,3.1 0,0.4 -0.1,0.8 -0.2,1.2 -0.2,0.7 -0.7,1.1 -1.4,1.1 -0.3,0 -0.7,0 -1,0 -4,0 -8.1,0 -12.1,0 -0.2,0 -0.3,0 -0.5,0 -1.6,-0.1 -2,-0.5 -2,-2.1 0,-1.3 0,-2.5 0,-3.8 0,-0.8 -0.2,-0.9 -0.9,-0.9 -0.3,0 -0.7,0 -1,0 -0.8,-0.1 -1.5,-0.8 -1.5,-1.6 -0.1,-0.9 0.6,-1.6 1.6,-1.8 0.5,-0.1 0.9,0 1.4,0 2.8,-0.1 5.9,0 9,0 z"
   id="path28" />
	<path
   fill="#c5d1d4"
   d="m 73.2,101.5 c 0.2,0 0.5,0 0.7,0 0.9,0 0.9,0.1 1,1 0,0.6 0,1.3 0,1.9 0,0.4 -0.3,0.6 -0.7,0.6 -0.7,0 -1.5,0 -2.2,0 -0.4,0 -0.6,-0.3 -0.6,-0.7 0,-0.7 0,-1.5 0,-2.2 0,-0.4 0.3,-0.6 0.7,-0.6 0.3,0 0.7,0 1.1,0 0,0 0,0 0,0 z"
   id="path30" />
	<path
   fill="#f5f5f5"
   d="m 80,105 c -1.7,0 -1.7,0.1 -1.7,-1.7 0,-1.9 -0.1,-1.7 1.8,-1.7 0.3,0 0.7,0 1,0 0.3,0 0.5,0.2 0.5,0.5 0,0.4 0,0.8 0,1.2 0.1,1.9 0.1,1.7 -1.6,1.7 z"
   id="path32" />
</g>
</svg>
