<svg width="682" height="147" viewBox="0 0 682 147" fill="none" xmlns="http://www.w3.org/2000/svg">
<path d="M100.261 101.6C100.261 109.333 98.2609 116.667 94.2609 123.6C90.3943 130.533 84.3276 136.2 76.0609 140.6C67.9276 144.867 57.3276 147 44.2609 147C37.7276 147 31.9943 146.667 27.0609 146C22.2609 145.467 17.7276 144.533 13.4609 143.2C9.19427 141.867 4.79427 140.133 0.260938 138V103.6C7.99427 107.467 15.7943 110.467 23.6609 112.6C31.5276 114.6 38.6609 115.6 45.0609 115.6C48.9276 115.6 52.0609 115.133 54.4609 114.2C56.8609 113.267 58.6609 112 59.8609 110.4C61.0609 108.8 61.6609 107 61.6609 105C61.6609 102.467 60.7943 100.333 59.0609 98.6C57.3276 96.8667 54.5943 95.0667 50.8609 93.2C47.1276 91.3333 42.1276 89 35.8609 86.2C30.5276 83.8 25.7276 81.2667 21.4609 78.6C17.1943 75.9333 13.5276 72.9333 10.4609 69.6C7.52761 66.2667 5.26094 62.4 3.66094 58C2.06094 53.4667 1.26094 48.1333 1.26094 42C1.26094 32.8 3.5276 25.1333 8.06094 19C12.5943 12.7333 18.8609 8.06666 26.8609 4.99999C34.9943 1.79999 44.3943 0.199993 55.0609 0.199993C64.3943 0.199993 72.7943 1.26666 80.2609 3.4C87.7276 5.4 94.3943 7.73333 100.261 10.4L88.4609 40.2C82.3276 37.4 76.2609 35.2 70.2609 33.6C64.3943 31.8667 58.9276 31 53.8609 31C50.5276 31 47.7943 31.4 45.6609 32.2C43.5276 33 41.9276 34.1333 40.8609 35.6C39.9276 36.9333 39.4609 38.4667 39.4609 40.2C39.4609 42.4667 40.3276 44.4667 42.0609 46.2C43.7943 47.9333 46.6609 49.8667 50.6609 52C54.7943 54 60.3943 56.6 67.4609 59.8C74.3943 62.8667 80.2609 66.2667 85.0609 70C89.9943 73.6 93.7276 77.9333 96.2609 83C98.9276 87.9333 100.261 94.1333 100.261 101.6ZM216.091 145H131.291V2.19999H216.091V33.2H169.891V55.6H212.691V86.6H169.891V113.6H216.091V145ZM315.856 145H241.456V123L259.256 116.2V30.8L241.456 24.2V2.19999H315.856V24.2L298.056 30.8V116.2L315.856 123V145ZM448.942 145H337.742V121.2L399.542 33.4H339.142V2.19999H447.342V26L385.542 113.8H448.942V145ZM563.208 145H478.408V2.19999H563.208V33.2H517.008V55.6H559.808V86.6H517.008V113.6H563.208V145ZM681.973 145H597.173V2.19999H681.973V33.2H635.773V55.6H678.573V86.6H635.773V113.6H681.973V145Z" fill="white"/>
</svg>
