<svg width="218" height="76" viewBox="0 0 218 76" fill="none" xmlns="http://www.w3.org/2000/svg">
<path d="M188.996 57.4306C188.703 59.2075 189.043 62.6631 192.748 62.2708C196.453 61.8784 196.718 64.537 196.07 66.5557C195.421 68.5744 196.538 70.2028 199.126 70.4991C201.714 70.7954 202.349 73.3884 202.342 74.6478" stroke="white" stroke-width="2"/>
<path d="M28.1851 56.504C28.4685 58.2747 28.1395 61.7185 24.5561 61.3275C20.9727 60.9364 20.716 63.5859 21.3435 65.5976C21.971 67.6093 20.8901 69.232 18.387 69.5273C15.8839 69.8226 15.2703 72.4066 15.2765 73.6617" stroke="white" stroke-width="2"/>
<path d="M187.153 15.5233C188.93 15.8163 192.385 15.4762 191.993 11.7713C191.601 8.06643 194.259 7.80099 196.278 8.44977C198.297 9.09854 199.925 7.98096 200.221 5.39299C200.518 2.80503 203.111 2.1707 204.37 2.17703" stroke="white" stroke-width="2"/>
<path d="M30.2195 15.1906C28.4488 15.4907 25.005 15.1424 25.3961 11.3482C25.7871 7.55398 23.1376 7.28214 21.1259 7.94656C19.1142 8.61098 17.4915 7.46645 17.1962 4.81611C16.9009 2.16576 14.3169 1.51615 13.0618 1.52263" stroke="white" stroke-width="2"/>
<path d="M194.061 36.1201C195.234 37.4868 198.1 39.4475 200.18 36.3572C202.261 33.2669 204.469 34.7725 205.598 36.567C206.727 38.3616 208.693 38.5522 210.584 36.7602C212.474 34.9681 214.868 36.1489 215.829 36.9633" stroke="white" stroke-width="2"/>
<path d="M23.3683 35.4456C22.2043 36.802 19.36 38.748 17.2947 35.6809C15.2294 32.6137 13.0387 34.108 11.9178 35.8892C10.7969 37.6703 8.84583 37.8594 6.96949 36.0808C5.09315 34.3023 2.71702 35.4742 1.76351 36.2825" stroke="white" stroke-width="2"/>
</svg>
