<svg width="15" height="115" viewBox="0 0 10 115" fill="none" xmlns="http://www.w3.org/2000/svg">
    <path
        d="M5.00027 1C3.16694 2.5 0.600269 6.1 5.00027 8.5C9.40027 10.9 6.8336 14.8333 5.00027 16.5C2.83361 17.6667 -0.199712 20.9 5.00027 24.5C10.2002 28.1 7.16693 32 5.00027 33.5C2.66692 34.8333 -0.599761 38.6 5.00027 43C10.6003 47.4 7.33362 52.1667 5.00027 54C2.83361 55.5 -0.199711 59.5 5.00027 63.5C10.2002 67.5 7.16693 72.1667 5.00027 74C2.33361 75.6667 0.500244 80 5.00027 84.5C10.0003 89.5 7.66693 93.6667 5.00027 95.5C2.33358 96.8333 0.500288 102.125 5.00027 105.5C9.00029 108.5 7.66695 113.167 5.00027 114"
        stroke="white" stroke-width="2" />
</svg>