<?xml version="1.0" encoding="UTF-8" standalone="no"?>
<!-- Generator: Adobe Illustrator 24.1.2, SVG Export Plug-In . SVG Version: 6.00 Build 0)  -->

<svg
   version="1.1"
   id="Layer_1"
   x="0px"
   y="0px"
   viewBox="0 0 123.2 123"
   enable-background="new 0 0 128 128"
   xml:space="preserve"
   sodipodi:docname="72231ca5a5fa9a0ad6d7b85aa4d24383.svg"
   width="32"
   height="32"
   xmlns:inkscape="http://www.inkscape.org/namespaces/inkscape"
   xmlns:sodipodi="http://sodipodi.sourceforge.net/DTD/sodipodi-0.dtd"
   xmlns="http://www.w3.org/2000/svg"
   xmlns:svg="http://www.w3.org/2000/svg"><defs
   id="defs11" /><sodipodi:namedview
   id="namedview9"
   pagecolor="#ffffff"
   bordercolor="#666666"
   borderopacity="1.0"
   inkscape:pageshadow="2"
   inkscape:pageopacity="0.0"
   inkscape:pagecheckerboard="0" />
<g
   id="g6"
   transform="translate(-2.4,-2.2)">
	<desc>cursor-land.com</desc><path
   d="M 102.1,125.2 C 90.4,113.4 78.4,101.2 65.5,88.2 59.2,94.9 53.1,101.5 46.4,108.7 31.6,72.9 17.3,38.3 2.4,2.2 38.4,17 73,31.3 107.8,45.7 c -6.7,6.4 -13.2,12.5 -20,19 13.5,13.4 25.8,25.5 37.8,37.3 -8.1,7.9 -15.4,15.1 -23.5,23.2 z"
   id="path2" />
	<path
   fill="#ffd300"
   d="M 49.3,95.7 C 38.1,68.6 27.5,43 16.4,16.2 43.2,27.3 68.8,37.8 95.9,49 89.2,54.8 83.5,59.8 77.2,65.3 c 13.3,13.1 25.6,25.1 38,37.3 -4.3,4.3 -8,8 -12.1,12.1 C 90.9,102.3 78.9,90 65.9,76.8 60.2,83.3 55.2,89 49.3,95.7 Z"
   id="path4" />
</g>
</svg>
