<?xml version="1.0" encoding="UTF-8" standalone="no"?>
<!-- Generator: Adobe Illustrator 24.1.2, SVG Export Plug-In . SVG Version: 6.00 Build 0)  -->

<svg
   version="1.1"
   id="Layer_1"
   x="0px"
   y="0px"
   viewBox="0 0 90.758896 123.14491"
   enable-background="new 0 0 128 128"
   xml:space="preserve"
   sodipodi:docname="e11375cc1ffbc9a7ce8b0e372b9af103.svg"
   width="32"
   height="32"
   xmlns:inkscape="http://www.inkscape.org/namespaces/inkscape"
   xmlns:sodipodi="http://sodipodi.sourceforge.net/DTD/sodipodi-0.dtd"
   xmlns="http://www.w3.org/2000/svg"
   xmlns:svg="http://www.w3.org/2000/svg"><defs
   id="defs11" /><sodipodi:namedview
   id="namedview9"
   pagecolor="#ffffff"
   bordercolor="#666666"
   borderopacity="1.0"
   inkscape:pageshadow="2"
   inkscape:pageopacity="0.0"
   inkscape:pagecheckerboard="0" />
<g
   id="g6"
   transform="translate(-18.791106,-2.4)">
	<path
   d="m 37.8,46.9 c 0,-9.2 0,-18.3 0,-27.3 0,-2.1 0.1,-4.3 0.6,-6.3 C 39.9,6.8 45.1,2.4 51,2.4 c 5.9,0 11.2,4.4 12.5,10.9 0.7,3.4 0.5,7.1 0.6,10.6 0.1,3.8 0,7.6 0,11.7 6.1,-0.1 10.9,1.5 14.4,6.5 0.5,0.6 2,0.8 3,0.8 5.1,-0.1 9,1.7 12.2,5.8 0.9,1.1 2.6,1.9 4.1,2.1 6.3,0.8 11.2,4.9 11.4,11.2 0.3,10.3 0.8,20.8 -0.5,31.1 -2.8,22.3 -22.3,35.6 -45.2,31.8 -19.2,-3.2 -29.4,-16.1 -35.1,-33.3 -3.5,-10.5 -6,-21.3 -8.8,-32 -1.3,-4.8 -1.5,-9.8 3,-13.3 4.4,-3.4 9.1,-2.4 13.5,0.3 0.3,0.1 0.8,0.1 1.7,0.3 z"
   id="path2" />
	<desc>cursor-land.com</desc><path
   fill="#ffd300"
   d="m 57.9,49.2 c 2.4,-4.2 4.7,-8.1 10.2,-7 6.6,1.4 6.1,6.9 6.3,13 2.8,-4.5 5.9,-7.5 10.7,-5.6 5.2,2.1 4.5,7 5.7,12 0.5,-0.8 0.8,-2.1 1.4,-2.4 2.1,-0.8 4.6,-2.1 6.5,-1.6 1.7,0.5 4,3 4.1,4.7 0.3,12 2,24.2 -1.6,36 -2.9,9.7 -9.6,16 -19.2,19 C 64.7,122.9 47.4,116.2 38.9,99.9 35.4,93.2 33.3,85.7 31,78.4 c -2.2,-6.9 -3.9,-13.9 -5.4,-21 -0.4,-2 0.8,-4.3 1.3,-6.5 2.3,0.6 5.6,0.5 6.8,2.1 2.9,3.7 5,8.1 7.2,12.4 1,2 1.5,4.2 2.9,6.2 0.1,-1.2 0.3,-2.4 0.3,-3.5 0,-15.8 0,-31.6 0,-47.3 0,-2 0,-4 0.4,-5.9 0.7,-3.3 2.6,-5.8 6.3,-5.9 3.9,-0.1 5.8,2.6 6.6,6 0.3,1.5 0.3,3.1 0.3,4.7 0,8.5 0,17.1 0,25.6 0.1,1.2 0.2,2.6 0.2,3.9 z"
   id="path4" />
</g>
</svg>
