<?xml version="1.0" encoding="UTF-8"?>
<svg id="_圖層_2_拷貝_4" data-name="圖層 2 拷貝 4" xmlns="http://www.w3.org/2000/svg" viewBox="0 0 135.88 24.71">
  <defs>
    <style>
      .cls-1 {
        fill: #113f75;
      }
    </style>
  </defs>
  <path class="cls-1" d="M22.94,1.76h1.76v1.77h-1.76v1.76H12.35v12.35h10.59v1.76h1.76v3.53h-1.76v1.76H3.53v-1.76H1.76v-1.76H0V3.53H1.76v1.76h1.76v-1.76h1.76V1.76h-1.76V0H22.94V1.76Z"/>
  <path class="cls-1" d="M49.41,19.41h1.76v3.53h-1.76v1.76H30v-1.76h-1.76V1.76h1.76v3.53h1.76v-1.76h1.76V1.76h-3.53V0h8.82V1.76h1.77v15.88h8.82v1.76Z"/>
  <path class="cls-1" d="M77.65,3.53h1.76V21.18h-1.76v1.76h-1.76v1.76h-17.65v-1.76h-1.76v-1.76h-1.76V3.53h1.76v1.76h1.76v-1.76h1.76V1.76h-1.76V0h17.65V1.76h1.76v1.77Zm-5.29,14.12V5.29h-5.29v12.35h5.29Z"/>
  <path class="cls-1" d="M105.88,1.76h1.76v3.53h-1.76v1.76h-10.59v1.76h10.59v1.76h1.76v10.59h-1.76v1.76h-1.76v1.76h-19.41v-1.76h-1.76v-5.29h1.76v-1.77h14.12v-1.76h-14.12v-1.76h-1.76V3.53h1.76v1.76h1.76v-1.76h1.76V1.76h-1.76V0h19.41V1.76Z"/>
  <path class="cls-1" d="M134.12,1.76h1.76v1.77h-1.76v1.76h-10.59v3.53h10.59v1.76h1.76v1.76h-1.76v1.76h-10.59v3.53h10.59v1.76h1.76v3.53h-1.76v1.76h-21.18v-1.76h-1.76V1.76h1.76v3.53h1.76v-1.76h1.76V1.76h-3.53V0h21.18V1.76Z"/>
</svg>