<?xml version="1.0" encoding="UTF-8"?>
<svg id="_圖層_2_拷貝_4" data-name="圖層 2 拷貝 4" xmlns="http://www.w3.org/2000/svg" viewBox="0 0 898.83 208.79">
  <defs>
    <style>
      .cls-1 {
        fill: #fff;
      }

      .cls-2 {
        fill: #0c3d70;
      }
    </style>
  </defs>
  <g>
    <rect class="cls-1" x="164.78" y="78.17" width="30.19" height="24.94"/>
    <path class="cls-2" d="M283.84,78.17h11.91v11.91h-11.91v11.91h-59.53v11.91h59.53v11.91h11.91v11.91h-11.91v11.91h-59.53v11.91h59.53v11.91h11.91v23.81h-11.91v11.91h-119.06v-11.91h-11.91V78.17h11.91v23.81h11.91v-11.91h11.91v-11.91h-23.81v-11.91h119.06v11.91Z"/>
  </g>
  <g>
    <rect class="cls-1" x="462.37" y="78.17" width="36.55" height="26.23"/>
    <path class="cls-2" d="M593.33,78.17v23.81h-11.91v11.91h-11.91v11.91h-11.91v11.91h-11.91v11.91h35.72v11.91h11.91v35.72h-11.91v11.91h-119.06v-11.91h-11.91v-23.81h11.91v-11.91h11.91v-11.91h11.91v-11.91h11.91v-11.91h11.91v-11.91h-47.62v-11.91h11.91v-11.91h11.91v-11.91h-23.81v-11.91h119.06v11.91h11.91Zm-130.97,23.81h-11.91v-23.81h11.91v23.81Z"/>
  </g>
  <g>
    <rect class="cls-1" x="614.99" y="78.17" width="36.13" height="28.94"/>
    <path class="cls-2" d="M734.05,78.17h11.91v11.91h-11.91v11.91h-59.53v11.91h59.53v11.91h11.91v11.91h-11.91v11.91h-59.53v11.91h59.53v11.91h11.91v23.81h-11.91v11.91h-119.06v-11.91h-11.91V78.17h11.91v23.81h11.91v-11.91h11.91v-11.91h-23.81v-11.91h119.06v11.91Z"/>
  </g>
  <g>
    <rect class="cls-1" x="767.86" y="78.17" width="36.67" height="29.06"/>
    <path class="cls-2" d="M886.92,78.17h11.91v11.91h-11.91v11.91h-59.53v11.91h59.53v11.91h11.91v11.91h-11.91v11.91h-59.53v11.91h59.53v11.91h11.91v23.81h-11.91v11.91h-119.06v-11.91h-11.91V78.17h11.91v23.81h11.91v-11.91h11.91v-11.91h-23.81v-11.91h119.06v11.91Z"/>
  </g>
  <g>
    <polygon class="cls-2" points="130.97 101.98 130.97 90.07 142.87 90.07 142.87 78.17 130.97 78.17 130.97 66.26 23.81 66.26 23.81 68.28 23.81 78.17 23.81 90.07 11.91 90.07 0 90.07 0 109.7 0 125.79 11.91 125.79 11.91 137.7 95.25 137.7 95.25 149.6 11.91 149.6 11.91 161.51 0 161.51 0 197.23 11.91 197.23 11.91 209.13 119.06 209.13 119.06 197.23 130.97 197.23 130.97 185.32 142.87 185.32 142.87 125.79 130.97 125.79 130.97 113.88 71.44 113.88 71.44 101.98 130.97 101.98"/>
    <polygon class="cls-1" points="103.52 87.13 111.91 78.73 103.5 70.32 95.1 78.71 86.7 70.31 78.3 78.71 86.71 87.11 95.12 95.52 103.52 87.13"/>
  </g>
  <g>
    <g>
      <rect class="cls-1" x="350.72" y="23.61" width="47.48" height="16.55"/>
      <polygon class="cls-2" points="374.45 59.27 386.32 59.27 398.2 59.27 398.2 47.38 410.07 47.38 410.07 35.5 421.94 35.5 421.94 23.61 410.07 23.61 398.2 23.61 398.2 35.5 386.32 35.5 386.32 23.61 398.2 23.61 398.2 11.72 386.32 11.72 386.32 -.17 374.45 -.17 362.58 -.17 362.58 11.72 350.72 11.72 350.72 23.61 362.58 23.61 362.58 35.5 350.72 35.5 350.72 23.61 338.84 23.61 326.97 23.61 326.97 35.5 338.84 35.5 338.84 47.38 350.72 47.38 350.72 59.27 362.58 59.27 374.45 59.27"/>
    </g>
    <g>
      <polygon class="cls-2" points="421.94 90.07 421.94 78.19 410.07 78.19 410.07 66.29 398.2 66.29 386.32 66.29 374.45 66.29 362.58 66.29 350.72 66.29 338.84 66.29 338.84 78.19 326.97 78.19 326.97 90.07 315.1 90.07 315.1 101.96 315.1 113.84 315.1 125.74 315.1 137.63 315.1 149.51 326.97 149.51 326.97 161.4 326.97 173.29 338.84 173.29 338.84 185.18 350.72 185.18 350.72 197.07 362.58 197.07 362.58 208.96 374.45 208.96 386.32 208.96 386.32 197.07 398.2 197.07 398.2 185.18 410.07 185.18 410.07 173.29 421.94 173.29 421.94 161.4 421.94 149.51 433.82 149.51 433.82 137.63 433.82 125.74 433.82 113.84 433.82 101.96 433.82 90.07 421.94 90.07"/>
      <g>
        <polygon class="cls-1" points="392.27 118.42 392.27 130.3 380.39 130.3 368.52 130.3 368.52 118.42 356.65 118.42 344.77 118.42 344.77 130.3 344.77 142.19 356.65 142.19 356.65 154.07 368.52 154.07 368.52 165.97 380.39 165.97 392.27 165.97 392.27 154.07 404.13 154.07 404.13 142.19 416 142.19 416 130.3 416 118.42 404.13 118.42 392.27 118.42"/>
        <polygon class="cls-1" points="392.27 94.63 392.27 106.52 404.13 106.52 404.13 94.63 404.13 82.75 392.27 82.75 392.27 94.63"/>
        <polygon class="cls-1" points="356.65 106.52 368.52 106.52 368.52 94.63 368.52 82.75 356.65 82.75 356.65 94.63 356.65 106.52"/>
      </g>
    </g>
  </g>
</svg>