<?xml version="1.0" encoding="UTF-8"?>
<svg id="_圖層_2_拷貝_4" data-name="圖層 2 拷貝 4" xmlns="http://www.w3.org/2000/svg" viewBox="0 0 898.83 208.79">
  <defs>
    <style>
      .cls-1 {
        fill: none;
      }

      .cls-2 {
        fill: #fff;
      }
    </style>
  </defs>
  <polygon class="cls-2" points="283.84 101.98 283.84 90.07 295.75 90.07 295.75 78.17 283.84 78.17 283.84 66.26 164.78 66.26 164.78 78.17 188.59 78.17 188.59 90.07 176.69 90.07 176.69 101.98 164.78 101.98 164.78 78.17 152.87 78.17 152.87 197.23 164.78 197.23 164.78 209.13 283.84 209.13 283.84 197.23 295.75 197.23 295.75 173.41 283.84 173.41 283.84 161.51 224.31 161.51 224.31 149.6 283.84 149.6 283.84 137.7 295.75 137.7 295.75 125.79 283.84 125.79 283.84 113.88 224.31 113.88 224.31 101.98 283.84 101.98"/>
  <g>
    <rect class="cls-2" x="450.46" y="78.17" width="11.91" height="23.81"/>
    <polygon class="cls-2" points="557.61 137.7 557.61 125.79 569.52 125.79 569.52 113.88 581.43 113.88 581.43 101.98 593.33 101.98 593.33 78.17 581.43 78.17 581.43 66.26 462.37 66.26 462.37 78.17 486.18 78.17 486.18 90.07 474.27 90.07 474.27 101.98 462.37 101.98 462.37 104.4 462.37 113.88 509.99 113.88 509.99 125.79 498.08 125.79 498.08 137.7 486.18 137.7 486.18 149.6 474.27 149.6 474.27 161.51 462.37 161.51 462.37 173.41 450.46 173.41 450.46 197.23 462.37 197.23 462.37 209.13 581.43 209.13 581.43 197.23 593.33 197.23 593.33 161.51 581.43 161.51 581.43 149.6 545.71 149.6 545.71 137.7 557.61 137.7"/>
  </g>
  <polygon class="cls-2" points="734.05 101.98 734.05 90.07 745.96 90.07 745.96 78.17 734.05 78.17 734.05 66.26 614.99 66.26 614.99 78.17 638.8 78.17 638.8 90.07 626.9 90.07 626.9 101.98 614.99 101.98 614.99 78.17 603.08 78.17 603.08 197.23 614.99 197.23 614.99 209.13 734.05 209.13 734.05 197.23 745.96 197.23 745.96 173.41 734.05 173.41 734.05 161.51 674.52 161.51 674.52 149.6 734.05 149.6 734.05 137.7 745.96 137.7 745.96 125.79 734.05 125.79 734.05 113.88 674.52 113.88 674.52 101.98 734.05 101.98"/>
  <polygon class="cls-2" points="886.92 101.98 886.92 90.07 898.83 90.07 898.83 78.17 886.92 78.17 886.92 66.26 767.86 66.26 767.86 78.17 791.67 78.17 791.67 90.07 779.77 90.07 779.77 101.98 767.86 101.98 767.86 78.17 755.96 78.17 755.96 197.23 767.86 197.23 767.86 209.13 886.92 209.13 886.92 197.23 898.83 197.23 898.83 173.41 886.92 173.41 886.92 161.51 827.39 161.51 827.39 149.6 886.92 149.6 886.92 137.7 898.83 137.7 898.83 125.79 886.92 125.79 886.92 113.88 827.39 113.88 827.39 101.98 886.92 101.98"/>
  <path class="cls-2" d="M130.97,101.98v-11.91h11.91v-11.91h-11.91v-11.91H23.81v23.81H0v35.72H11.91v11.91H95.25v11.91H11.91v11.91H0v35.72H11.91v11.91H119.06v-11.91h11.91v-11.91h11.91v-59.53h-11.91v-11.91h-59.53v-11.91h59.53Zm-44.27-31.67l8.4,8.4,8.4-8.4,8.41,8.41-8.4,8.4-8.4,8.4-8.41-8.41-8.4-8.4,8.4-8.4Z"/>
  <g>
    <g>
      <rect class="cls-1" x="386.32" y="23.61" width="11.87" height="11.89"/>
      <rect class="cls-1" x="350.72" y="23.61" width="11.86" height="11.89"/>
      <polygon class="cls-2" points="410.07 23.61 398.2 23.61 398.2 35.5 386.32 35.5 386.32 23.61 398.2 23.61 398.2 11.72 386.32 11.72 386.32 -.17 374.45 -.17 362.58 -.17 362.58 11.72 350.72 11.72 350.72 23.61 362.58 23.61 362.58 35.5 350.72 35.5 350.72 23.61 338.84 23.61 326.97 23.61 326.97 35.5 338.84 35.5 338.84 47.38 350.72 47.38 350.72 59.27 362.58 59.27 374.45 59.27 386.32 59.27 398.2 59.27 398.2 47.38 410.07 47.38 410.07 35.5 421.94 35.5 421.94 23.61 410.07 23.61"/>
    </g>
    <path class="cls-2" d="M421.94,90.07v-11.89h-11.87v-11.9h-71.23v11.9h-11.87v11.89h-11.87v59.44h11.87v23.78h11.87v11.89h11.87v11.89h11.86v11.9h23.75v-11.9h11.87v-11.89h11.87v-11.89h11.87v-23.78h11.87v-59.44h-11.87Zm-29.68,4.56v-11.89h11.86v23.77h-11.86v-11.89Zm-35.62,0v-11.89h11.87v23.77h-11.87v-11.89Zm59.35,35.67v11.89h-11.87v11.89h-11.86v11.9h-23.75v-11.9h-11.87v-11.89h-11.87v-23.77h23.75v11.89h23.75v-11.89h23.73v11.89Z"/>
  </g>
</svg>