<?xml version="1.0" encoding="UTF-8"?>
<svg id="_圖層_2_拷貝_4" data-name="圖層 2 拷貝 4" xmlns="http://www.w3.org/2000/svg" viewBox="0 0 112.08 24.71">
  <defs>
    <style>
      .cls-1 {
        fill: #113f75;
      }
    </style>
  </defs>
  <path class="cls-1" d="M24.71,1.76h1.76V22.94h-1.76v1.76h-5.29v-1.76h-1.76v-5.29h-1.76v1.76h-1.76v-1.76h-1.76v5.29h-1.77v1.76H1.76v-1.76H0V1.76H1.76v3.53h1.76v-1.76h1.76V1.76H1.76V0H10.59V1.76h1.77v7.06h1.76v1.76h1.76v-1.76h1.76V1.76h1.76V0h5.29V1.76Z"/>
  <path class="cls-1" d="M53.24,1.76h1.76v1.77h-1.76v1.76h-10.59v3.53h10.59v1.76h1.76v1.76h-1.76v1.76h-10.59v3.53h10.59v1.76h1.76v3.53h-1.76v1.76h-21.18v-1.76h-1.76V1.76h1.76v3.53h1.76v-1.76h1.76V1.76h-3.53V0h21.18V1.76Z"/>
  <path class="cls-1" d="M81.78,1.76h1.76V22.94h-1.76v1.76h-5.29v-1.76h-1.76v-5.29h-1.76v-1.77h-1.76v7.06h-1.77v1.76h-8.82v-1.76h-1.76V1.76h1.76v3.53h1.76v-1.76h1.76V1.76h-3.53V0h8.82V1.76h1.77v7.06h1.76v1.76h1.76V1.76h1.76V0h5.29V1.76Z"/>
  <path class="cls-1" d="M110.31,1.76h1.76V21.18h-1.76v1.76h-1.76v1.76h-17.65v-1.76h-1.76v-1.76h-1.76V1.76h1.76v3.53h1.76v-1.76h1.76V1.76h-3.53V0h8.82V1.76h1.77v15.88h3.53V1.76h1.76V0h5.29V1.76Z"/>
</svg>