<?xml version="1.0" encoding="UTF-8"?>
<svg id="_圖層_1" data-name="圖層 1" xmlns="http://www.w3.org/2000/svg" viewBox="0 0 54.45 54.46">
  <defs>
    <style>
      .cls-1 {
        fill: #f2f2f2;
      }

      .cls-2 {
        fill: #d7312e;
      }

      .cls-3 {
        fill: #9d2e2e;
      }

      .cls-4 {
        fill: #29315a;
      }
    </style>
  </defs>
  <polygon class="cls-2" points="39.6 4.95 34.65 4.95 29.7 4.95 24.75 4.95 19.8 4.95 14.85 4.95 9.9 4.95 4.95 4.95 4.95 9.9 4.95 14.85 4.95 19.8 4.95 24.75 4.95 29.7 4.95 34.65 4.95 39.6 4.95 44.56 9.9 44.56 14.85 44.56 19.8 44.56 24.75 44.56 29.7 44.56 34.65 44.56 39.6 44.56 44.55 44.56 44.55 39.6 44.55 34.65 44.55 29.7 44.55 24.75 44.55 19.8 44.55 14.85 44.55 9.9 44.55 4.95 39.6 4.95"/>
  <polygon class="cls-4" points="49.5 4.94 49.5 9.89 49.5 14.84 49.5 19.79 49.5 24.74 49.5 29.69 49.5 34.64 49.5 39.59 49.5 44.55 49.5 49.5 54.45 49.5 54.45 44.55 54.45 39.59 54.45 34.64 54.45 29.69 54.45 24.74 54.45 19.79 54.45 14.84 54.45 9.89 54.45 4.94 49.5 4.94"/>
  <polygon class="cls-4" points="39.6 49.5 34.65 49.5 29.7 49.5 24.75 49.5 19.8 49.5 14.85 49.5 9.9 49.5 4.95 49.5 4.95 54.45 9.9 54.45 14.85 54.45 19.8 54.45 24.75 54.45 29.7 54.45 34.65 54.45 39.6 54.45 44.55 54.45 49.5 54.45 49.5 49.5 44.55 49.5 39.6 49.5"/>
  <polygon class="cls-4" points="14.85 4.94 19.8 4.94 24.75 4.94 29.7 4.94 34.65 4.94 39.6 4.94 44.55 4.94 49.5 4.94 49.5 -.01 44.55 -.01 39.6 -.01 34.65 -.01 29.7 -.01 24.75 -.01 19.8 -.01 14.85 -.01 9.9 -.01 4.95 -.01 4.95 4.94 9.9 4.94 14.85 4.94"/>
  <polygon class="cls-4" points="4.95 39.59 4.95 34.64 4.95 29.69 4.95 24.74 4.95 19.79 4.95 14.84 4.95 9.89 4.95 4.94 0 4.94 0 9.89 0 14.84 0 19.79 0 24.74 0 29.69 0 34.64 0 39.59 0 44.55 0 49.5 4.95 49.5 4.95 44.55 4.95 39.59"/>
  <polygon class="cls-3" points="47.53 4.95 44.55 4.95 43.4 4.95 43.4 42.6 4.95 42.6 4.95 44.56 4.95 46.17 4.95 49.51 9.9 49.51 14.85 49.51 19.8 49.51 24.75 49.51 29.7 49.51 34.65 49.51 39.6 49.51 44.55 49.51 49.5 49.51 49.5 44.56 49.5 39.6 49.5 34.65 49.5 29.7 49.5 24.75 49.5 19.8 49.5 14.85 49.5 9.9 49.5 4.95 47.53 4.95"/>
  <g>
    <rect class="cls-1" x="34.65" y="27.23" width="4.95" height="4.95"/>
    <rect class="cls-1" x="29.7" y="22.28" width="4.95" height="4.95"/>
    <rect class="cls-1" x="24.75" y="17.33" width="4.95" height="4.95"/>
    <rect class="cls-1" x="19.8" y="22.28" width="4.95" height="4.95"/>
    <rect class="cls-1" x="14.85" y="27.23" width="4.95" height="4.95"/>
  </g>
</svg>