<?xml version="1.0" encoding="UTF-8"?>
<svg id="_圖層_3" data-name="圖層 3" xmlns="http://www.w3.org/2000/svg" viewBox="0 0 78.43 88.24">
  <defs>
    <style>
      .cls-1 {
        fill: #0d3d70;
      }
    </style>
  </defs>
  <rect class="cls-1" x="68.63" y="39.22" width="9.81" height="9.8"/>
  <rect class="cls-1" x="58.83" y="49.02" width="9.8" height="9.81"/>
  <rect class="cls-1" x="58.83" y="29.41" width="9.8" height="9.81"/>
  <rect class="cls-1" x="49.02" y="58.83" width="9.81" height="9.8"/>
  <rect class="cls-1" x="49.02" y="19.61" width="9.81" height="9.8"/>
  <rect class="cls-1" x="39.22" y="68.63" width="9.8" height="9.8"/>
  <rect class="cls-1" x="39.22" y="9.81" width="9.8" height="9.8"/>
  <polygon class="cls-1" points="19.61 78.43 9.81 78.43 9.81 68.63 9.81 58.83 9.81 49.02 9.81 39.22 9.81 29.41 9.81 19.61 9.81 9.81 19.61 9.81 29.42 9.81 39.22 9.81 39.22 0 29.42 0 19.61 0 9.81 0 0 0 0 9.81 0 19.61 0 29.41 0 39.22 0 49.02 0 58.83 0 68.63 0 78.43 0 88.24 9.81 88.24 19.61 88.24 29.42 88.24 39.22 88.24 39.22 78.43 29.42 78.43 19.61 78.43"/>
</svg>