<?xml version="1.0" encoding="UTF-8"?>
<svg id="_圖層_1" data-name="圖層 1" xmlns="http://www.w3.org/2000/svg" viewBox="0 0 75 63.71">
  <defs>
    <style>
      .cls-1 {
        fill: #fff;
      }

      .cls-2 {
        fill: #29315a;
      }
    </style>
  </defs>
  <path class="cls-2" d="M11.18,40.34c-1.32,0-2.43,0-3.53,0q-2.31,0-2.31-2.37c0-1.1,0-2.2,0-3.43H0V11.32H5.22V5.43h5.75V.04H28.49V5.31h5.77v5.68h5.79c0-1.51,.05-2.98-.02-4.44-.04-.9,.22-1.25,1.17-1.2,1.47,.07,2.94,.02,4.61,.02V0h17.43V5.27h5.8v5.76h5.96v23.35h-5.77v5.76h-5.89c0,1.71-.04,3.26,.02,4.8,.03,.87-.28,1.14-1.13,1.11-1.47-.06-2.95-.02-4.59-.02v5.83h-5.89v5.74h-5.82v6.11H28.56v-5.96h-5.77v-5.75h-5.8v-5.86h-5.8v-5.81ZM43.26,14.23h-12.22v-5.73h-5.83V3.27H14.19v5.38h-5.68c0,1.66-.05,3.18,.02,4.69,.05,.95-.31,1.2-1.21,1.16-1.38-.07-2.76-.02-4.14-.02V31.28h5.41v5.79h5.79v5.87h5.85v5.81h5.78v5.8h5.79v5.94h10.84c0-1.65,.05-3.24-.02-4.82-.04-.95,.22-1.32,1.23-1.27,1.5,.08,3.01,.02,4.66,.02,0-1.63,.06-3.1-.02-4.56-.05-.99,.31-1.28,1.26-1.24,1.5,.07,3,.02,4.62,.02v-5.83h5.72c0-1.57,.07-3-.02-4.42-.07-1.1,.24-1.55,1.42-1.46,1.45,.1,2.91,.02,4.48,.02v-5.78h5.8V14.28h-5.95v-5.77h-5.8V3.24h-11v5.41h-5.77v5.58Z"/>
  <path class="cls-1" d="M65.84,14.28v-5.77h-5.8V3.24h-11v5.41h-5.77v5.58h-12.22v-5.73h-5.83V3.27H14.21v5.38h-5.68c0,1.66-.05,3.18,.02,4.69,.05,.95-.31,1.2-1.21,1.16-1.38-.07-2.76-.02-4.14-.02V31.28h5.35v.58h.06v5.21h5.79v5.87h5.85v5.81h5.78v5.8h5.79v5.94h10.84c0-1.65,.05-3.24-.02-4.82-.04-.95,.22-1.32,1.23-1.27,1.5,.08,3.01,.02,4.66,.02,0-1.63,.06-3.1-.02-4.56-.05-.99,.31-1.28,1.26-1.24,1.5,.07,3,.02,4.62,.02v-5.83h5.72c0-1.57,.07-3-.02-4.42-.07-1.1,.24-1.55,1.42-1.46,1.45,.1,2.91,.02,4.48,.02v-5.78h5.8V14.28h-5.95Z"/>
</svg>