<?xml version="1.0" encoding="UTF-8"?>
<svg id="_圖層_1" data-name="圖層 1" xmlns="http://www.w3.org/2000/svg" viewBox="0 0 54.45 54.46">
  <defs>
    <style>
      .cls-1 {
        fill: #f2f2f2;
      }

      .cls-2 {
        fill: #af3433;
      }

      .cls-3 {
        fill: #e04742;
      }

      .cls-4 {
        fill: #29315a;
      }
    </style>
  </defs>
  <polygon class="cls-3" points="39.6 4.95 34.65 4.95 29.7 4.95 24.75 4.95 19.8 4.95 14.85 4.95 9.9 4.95 4.95 4.95 4.95 9.9 4.95 14.85 4.95 19.8 4.95 24.75 4.95 29.7 4.95 34.65 4.95 39.6 4.95 44.56 9.9 44.56 14.85 44.56 19.8 44.56 24.75 44.56 29.7 44.56 34.65 44.56 39.6 44.56 44.55 44.56 44.55 39.6 44.55 34.65 44.55 29.7 44.55 24.75 44.55 19.8 44.55 14.85 44.55 9.9 44.55 4.95 39.6 4.95"/>
  <polygon class="cls-2" points="49.5 39.58 49.5 34.63 49.5 29.68 49.5 24.73 49.5 19.78 49.5 14.83 49.5 9.88 49.5 4.93 44.55 4.93 44.55 9.88 44.55 14.83 44.55 19.78 44.55 24.73 44.55 29.68 44.55 34.63 44.55 39.58 44.55 44.54 39.6 44.54 34.65 44.54 29.7 44.54 24.75 44.54 19.8 44.54 14.85 44.54 9.9 44.54 4.95 44.54 4.95 49.49 9.9 49.49 14.85 49.49 19.8 49.49 24.75 49.49 29.7 49.49 34.65 49.49 39.6 49.49 44.55 49.49 49.5 49.49 49.5 44.54 49.5 39.58"/>
  <polygon class="cls-4" points="49.5 4.95 49.5 9.9 49.5 14.85 49.5 19.8 49.5 24.75 49.5 29.7 49.5 34.65 49.5 39.6 49.5 44.56 49.5 49.51 54.45 49.51 54.45 44.56 54.45 39.6 54.45 34.65 54.45 29.7 54.45 24.75 54.45 19.8 54.45 14.85 54.45 9.9 54.45 4.95 49.5 4.95"/>
  <polygon class="cls-4" points="39.6 49.51 34.65 49.51 29.7 49.51 24.75 49.51 19.8 49.51 14.85 49.51 9.9 49.51 4.95 49.51 4.95 54.46 9.9 54.46 14.85 54.46 19.8 54.46 24.75 54.46 29.7 54.46 34.65 54.46 39.6 54.46 44.55 54.46 49.5 54.46 49.5 49.51 44.55 49.51 39.6 49.51"/>
  <polygon class="cls-4" points="14.85 4.95 19.8 4.95 24.75 4.95 29.7 4.95 34.65 4.95 39.6 4.95 44.55 4.95 49.5 4.95 49.5 0 44.55 0 39.6 0 34.65 0 29.7 0 24.75 0 19.8 0 14.85 0 9.9 0 4.95 0 4.95 4.95 9.9 4.95 14.85 4.95"/>
  <polygon class="cls-4" points="4.95 39.6 4.95 34.65 4.95 29.7 4.95 24.75 4.95 19.8 4.95 14.85 4.95 9.9 4.95 4.95 0 4.95 0 9.9 0 14.85 0 19.8 0 24.75 0 29.7 0 34.65 0 39.6 0 44.56 0 49.51 4.95 49.51 4.95 44.56 4.95 39.6"/>
  <g>
    <rect class="cls-1" x="34.65" y="27.23" width="4.95" height="4.95"/>
    <rect class="cls-1" x="29.7" y="22.28" width="4.95" height="4.95"/>
    <rect class="cls-1" x="24.75" y="17.33" width="4.95" height="4.95"/>
    <rect class="cls-1" x="19.8" y="22.28" width="4.95" height="4.95"/>
    <rect class="cls-1" x="14.85" y="27.23" width="4.95" height="4.95"/>
  </g>
</svg>